<?xml version="1.0" encoding="UTF-8"?>
<svg width="22px" height="22px" viewBox="0 0 22 22" version="1.1" xmlns="http://www.w3.org/2000/svg" xmlns:xlink="http://www.w3.org/1999/xlink">
    <!-- Generator: Sketch 54.1 (76490) - https://sketchapp.com -->
    <title>icon-dashboard</title>
    <desc>Created with Sketch.</desc>
    <defs>
        <path d="M21.87379,9.69062043 L20.3296259,9.42866096 C20.1687754,8.90933779 19.9619677,8.40839774 19.7092028,7.9304366 L20.6191566,6.65740547 C21.0051977,6.11510341 20.9454532,5.37518279 20.4720934,4.9064132 L19.1025669,3.53687069 C18.8452062,3.279507 18.5051224,3.13703781 18.14206,3.13703781 C17.857125,3.13703781 17.5859771,3.22435764 17.3561908,3.38980572 L16.0785788,4.29977021 C15.5822403,4.03781074 15.0629232,3.82180907 14.5252232,3.66095676 L14.2678625,2.13515772 C14.1575651,1.47796114 13.5922907,1 12.9259104,1 L10.9911095,1 C10.3247292,1 9.7594548,1.47796114 9.64915736,2.13515772 L9.38260522,3.697723 C8.86788385,3.85857531 8.36694966,4.0699812 7.8889941,4.32734489 L6.62516929,3.41738041 C6.39538297,3.25193232 6.11963937,3.16461249 5.83470433,3.16461249 C5.47164193,3.16461249 5.12696244,3.30708168 4.87419748,3.56444537 L3.50007524,4.93398788 C3.03131113,5.40275747 2.96697096,6.14267809 3.35301199,6.68498015 L4.2721573,7.9763944 C4.01939234,8.45895133 3.81718037,8.95989137 3.66092567,9.47921454 L2.13514446,9.73657823 C1.47795556,9.84687696 1,10.4121579 1,11.0785461 L1,13.0133695 C1,13.6797577 1.47795556,14.2450386 2.13514446,14.3553374 L3.69769148,14.6218926 C3.85854191,15.13662 4.06994533,15.6375601 4.32730602,16.1155212 L3.42194789,17.374765 C3.03590686,17.9170671 3.09565131,18.6569877 3.56901114,19.1257573 L4.93853765,20.4952998 C5.19589834,20.7526635 5.5359821,20.8951327 5.8990445,20.8951327 C6.18397955,20.8951327 6.45512741,20.8078128 6.68491374,20.6423647 L7.9763129,19.7232087 C8.44048128,19.966785 8.9276283,20.1644036 9.42856249,20.3206601 L9.68592318,21.8648423 C9.79622061,22.5220389 10.361495,23 11.0278753,23 L12.9672719,23 C13.6336523,23 14.1989266,22.5220389 14.3092241,21.8648423 L14.5711805,20.3206601 C15.0904976,20.1598078 15.5914318,19.9529977 16.0693874,19.7002298 L17.3424036,20.6101943 C17.5721899,20.7756424 17.8479335,20.8629622 18.1328686,20.8629622 L18.1328686,20.8629622 C18.495931,20.8629622 18.8360147,20.720493 19.0933754,20.4631293 L20.4629019,19.0935868 C20.931666,18.6248172 20.9960062,17.8848966 20.6099652,17.3425945 L19.7000113,16.0649676 C19.9527763,15.5824107 20.1641797,15.0814706 20.3204344,14.5667433 L21.8645985,14.3093796 C22.5217874,14.1990808 22.999743,13.6337999 22.999743,12.9674117 L22.999743,11.0325883 C23.0089344,10.3662001 22.5309789,9.80091916 21.87379,9.69062043 Z M21.7680883,12.9674117 C21.7680883,13.0271569 21.7267267,13.0777105 21.6669823,13.086902 L19.7367771,13.4086066 C19.4932036,13.4499687 19.3001831,13.6292041 19.2404387,13.8635889 C19.0658011,14.5391686 18.7992489,15.1871736 18.4407822,15.7892208 C18.3166976,16.0006267 18.3258891,16.2625862 18.4683566,16.4648005 L19.6035011,18.064132 C19.6356712,18.1100898 19.6310754,18.1790265 19.5897139,18.2203886 L18.2201874,19.5899311 C18.1880173,19.6221015 18.1558472,19.6266973 18.1328686,19.6266973 C18.1052942,19.6266973 18.0823156,19.6175057 18.0639327,19.6037184 L16.4692156,18.4685607 C16.2715993,18.3260915 16.0050472,18.3168999 15.7936438,18.440986 C15.1916036,18.7994569 14.5436061,19.0660121 13.8680343,19.2406518 C13.6290566,19.3003969 13.4498232,19.4980155 13.4130574,19.736996 L13.0867608,21.6672237 C13.0775694,21.7269689 13.0270164,21.7683309 12.9672719,21.7683309 L11.0324711,21.7683309 C10.9727266,21.7683309 10.9221736,21.7269689 10.9129822,21.6672237 L10.5912813,19.736996 C10.5499198,19.4934197 10.3706864,19.3003969 10.1363044,19.2406518 C9.47911548,19.0706079 8.84490522,18.8086484 8.25205649,18.4685607 C8.15554623,18.4134113 8.0452488,18.3858366 7.93954709,18.3858366 C7.81546247,18.3858366 7.68678213,18.4226029 7.58108042,18.5007311 L5.97257612,19.6450804 C5.94959749,19.6588678 5.92661886,19.6680593 5.90364023,19.6680593 C5.88525732,19.6680593 5.84849151,19.6634635 5.81632142,19.6312931 L4.44679491,18.2617506 C4.40543337,18.2203886 4.40083765,18.1560476 4.43300773,18.105494 L5.56355646,16.5199499 C5.70602398,16.3177355 5.71521544,16.0511803 5.59113082,15.8397744 C5.23266415,15.242323 4.95692056,14.5943179 4.78228295,13.9187382 C4.71794278,13.6843535 4.52492226,13.505118 4.28594448,13.463756 L2.34195215,13.1328598 C2.28220771,13.1236683 2.24084617,13.0731147 2.24084617,13.0133695 L2.24084617,11.0785461 C2.24084617,11.0188009 2.28220771,10.9682473 2.34195215,10.9590558 L4.25837012,10.6373512 C4.50194363,10.5959891 4.69955987,10.4167537 4.75930432,10.1777731 C4.9293462,9.50219344 5.19130261,8.84959265 5.54517356,8.24754544 C5.66925817,8.03613954 5.65547099,7.77418007 5.51300347,7.57656152 L4.36866756,5.96803844 C4.33649747,5.92208064 4.3410932,5.85314393 4.38245474,5.81178191 L5.75198125,4.4422394 C5.78415134,4.41006894 5.81632142,4.40547316 5.83930005,4.40547316 C5.86687441,4.40547316 5.88985305,4.41466472 5.90823595,4.42845206 L7.49376161,5.559014 C7.69597358,5.70148318 7.96252572,5.71067474 8.17392914,5.58658868 C8.77137359,5.22811782 9.41937104,4.952371 10.0949428,4.77773136 C10.3293249,4.71339043 10.5085582,4.52036766 10.5499198,4.28138709 L10.8808121,2.33737205 C10.8900035,2.27762691 10.9405565,2.23626488 11.000301,2.23626488 L12.9351018,2.23626488 C12.9948463,2.23626488 13.0453993,2.27762691 13.0545907,2.33737205 L13.3762916,4.25381241 C13.4176531,4.49738876 13.5968865,4.69500731 13.8358642,4.75475245 C14.529819,4.9293921 15.1916036,5.20054314 15.8074309,5.56360978 C16.0188344,5.68769584 16.2807908,5.67850428 16.4830027,5.5360351 L18.0685284,4.3962816 C18.091507,4.38249426 18.1144857,4.37330269 18.1374643,4.37330269 C18.1558472,4.37330269 18.192613,4.37789848 18.2247831,4.41006894 L19.5943096,5.77961145 C19.6356712,5.82097347 19.6402669,5.88531439 19.6080968,5.93586798 L18.4729523,7.53060372 C18.3304848,7.72822227 18.3212934,7.99477752 18.445378,8.20618341 C18.8038446,8.80823062 19.0703968,9.45623564 19.2450344,10.1318153 C19.3047788,10.3707959 19.5023951,10.5500313 19.7413729,10.5867976 L21.671578,10.913098 C21.7313225,10.9222895 21.772684,10.9728431 21.772684,11.0325883 L21.772684,12.9674117 L21.7680883,12.9674117 Z M12.0021694,7.25026112 C9.38260522,7.25026112 7.25478383,9.37810737 7.25478383,11.9977021 C7.25478383,14.6172968 9.38260522,16.7451431 12.0021694,16.7451431 C14.6217335,16.7451431 16.7495549,14.6172968 16.7495549,11.9977021 C16.7495549,9.37810737 14.6217335,7.25026112 12.0021694,7.25026112 Z M12.0021694,15.5042824 C10.0673685,15.5042824 8.49563,13.9325256 8.49563,11.9977021 C8.49563,10.0628786 10.0673685,8.49112179 12.0021694,8.49112179 C13.9369702,8.49112179 15.5087087,10.0628786 15.5087087,11.9977021 C15.5087087,13.9325256 13.9369702,15.5042824 12.0021694,15.5042824 Z" id="path-1"></path>
    </defs>
    <g id="Page-1" stroke="none" stroke-width="1" fill="none" fill-rule="evenodd">
        <g id="Dashboard" transform="translate(-24.000000, -410.000000)">
            <g id="Nav/Menu/List--Copy-7" transform="translate(0.000000, 393.000000)">
                <g id="icon-Chat-Copy" transform="translate(23.000000, 16.000000)">
                    <mask id="mask-2" fill="white">
                        <use xlink:href="#path-1"></use>
                    </mask>
                    <use id="Settings" fill="#718096" fill-rule="evenodd" xlink:href="#path-1"></use>
                </g>
            </g>
        </g>
    </g>
</svg>