<?xml version="1.0" standalone="no"?>
<!DOCTYPE svg PUBLIC "-//W3C//DTD SVG 20010904//EN"
 "http://www.w3.org/TR/2001/REC-SVG-20010904/DTD/svg10.dtd">
<svg version="1.0" xmlns="http://www.w3.org/2000/svg"
 width="896.000000pt" height="896.000000pt" viewBox="0 0 896.000000 896.000000"
 preserveAspectRatio="xMidYMid meet">
<metadata>
Created by potrace 1.11, written by Peter Selinger 2001-2013
</metadata>
<g transform="translate(0.000000,896.000000) scale(0.100000,-0.100000)"
fill="#000000" stroke="none">
<path d="M2210 8755 c-19 -7 -38 -13 -42 -14 -5 0 -9 -1 -10 -2 -2 0 -12 -2
-22 -4 -71 -13 -221 -104 -301 -181 -88 -85 -121 -136 -186 -279 -5 -11 -18
-54 -28 -95 -19 -72 -20 -120 -20 -1135 0 -1135 -1 -1127 50 -1300 19 -64 113
-273 128 -285 3 -3 24 -32 46 -64 74 -110 243 -265 360 -330 17 -9 48 -28 70
-41 22 -14 51 -31 65 -37 14 -7 36 -19 50 -29 14 -9 45 -27 70 -41 25 -14 149
-85 275 -158 285 -164 288 -166 328 -188 17 -11 58 -34 90 -53 32 -19 70 -41
85 -49 73 -40 112 -64 112 -70 0 -3 -24 -18 -52 -33 -29 -16 -69 -37 -88 -49
-19 -11 -109 -63 -200 -114 -91 -52 -172 -99 -180 -104 -8 -6 -22 -13 -30 -17
-8 -4 -17 -9 -20 -12 -3 -4 -23 -15 -45 -26 -22 -11 -42 -22 -45 -25 -3 -3
-52 -33 -110 -65 -58 -33 -118 -68 -135 -78 -16 -10 -42 -23 -57 -30 -16 -6
-28 -15 -28 -19 0 -4 -4 -8 -10 -8 -8 0 -86 -44 -160 -90 -8 -5 -34 -19 -57
-31 -24 -13 -43 -26 -43 -31 0 -4 -5 -8 -11 -8 -22 0 -156 -121 -224 -201 -71
-85 -191 -314 -188 -359 0 -3 -4 -16 -9 -30 -6 -14 -12 -38 -15 -55 -3 -16 -9
-50 -13 -75 -11 -55 -8 -2115 3 -2150 4 -14 10 -37 12 -52 7 -47 67 -180 113
-253 78 -121 224 -249 352 -307 63 -29 140 -58 140 -53 0 3 8 2 18 -4 39 -21
229 -31 337 -18 59 7 200 55 259 87 91 49 148 82 239 136 49 30 93 54 97 54 4
0 13 7 20 15 6 8 15 14 18 12 4 -1 18 6 32 15 14 8 143 83 286 166 144 83 277
160 295 172 19 11 48 27 64 35 17 9 44 24 60 34 17 10 75 44 130 76 55 32 116
67 136 79 20 12 102 59 183 106 81 47 161 93 179 104 47 27 420 242 448 258
13 7 26 15 29 18 3 3 19 12 35 20 17 8 32 17 35 20 3 3 16 11 30 18 14 7 40
21 59 33 31 18 245 142 331 191 19 11 107 62 195 113 88 51 176 102 195 113
19 10 86 49 148 86 62 36 132 77 155 90 23 13 58 33 77 44 19 12 51 29 70 39
19 9 37 20 40 23 3 4 30 20 60 37 145 80 254 147 294 183 126 112 201 216 256
354 60 154 77 328 45 486 -13 65 -18 86 -23 95 -4 6 -8 18 -9 28 -5 32 -73
159 -118 221 -94 129 -165 188 -355 295 -72 41 -191 109 -210 121 -43 27 -152
90 -155 90 -2 0 -87 49 -210 120 -16 10 -67 39 -113 65 -93 52 -93 46 -2 97
25 14 171 98 324 187 154 88 283 161 288 161 4 0 8 4 8 9 0 5 8 11 18 14 9 3
49 24 87 47 39 22 85 48 103 57 17 9 32 20 32 25 0 4 4 8 10 8 15 0 48 28 120
101 73 73 93 97 111 131 6 13 15 25 19 28 16 11 72 144 92 217 16 60 22 108
22 208 1 147 -5 188 -41 288 -60 168 -183 329 -319 418 -63 42 -99 63 -104 64
-3 0 -48 26 -100 56 -52 31 -133 78 -180 105 -47 27 -94 54 -105 61 -11 7 -29
17 -40 23 -11 5 -42 24 -70 40 -27 17 -62 36 -77 42 -16 7 -28 16 -28 20 0 4
-5 8 -10 8 -6 0 -27 11 -48 23 -20 13 -57 35 -82 49 -97 55 -386 221 -407 234
-13 8 -25 13 -27 12 -2 -2 -12 4 -22 13 -11 9 -64 42 -119 73 -55 31 -107 61
-115 66 -8 5 -87 51 -175 101 -88 50 -175 100 -192 110 -18 11 -50 29 -70 40
-21 12 -51 30 -68 40 -16 10 -46 26 -65 37 -19 11 -107 61 -195 112 -88 51
-178 103 -200 115 -22 13 -139 80 -260 150 -121 70 -240 139 -265 153 -25 14
-58 33 -75 43 -16 10 -57 33 -90 52 -114 65 -130 74 -183 106 -29 17 -57 31
-62 31 -6 0 -10 5 -10 10 0 6 -5 10 -11 10 -6 0 -48 22 -93 49 -44 27 -108 64
-141 81 -33 18 -67 39 -76 46 -8 8 -18 14 -21 14 -4 0 -41 20 -82 45 -42 25
-78 45 -81 45 -2 0 -30 16 -62 35 -57 34 -165 78 -220 91 -56 13 -287 13 -323
-1z m280 -401 c25 -9 50 -20 55 -24 6 -4 30 -19 55 -32 67 -38 121 -69 155
-89 17 -11 37 -22 45 -26 8 -4 55 -31 104 -60 49 -29 90 -53 91 -53 1 0 80
-45 174 -100 95 -55 176 -100 181 -100 4 0 10 -3 12 -7 2 -5 23 -19 48 -32 25
-14 77 -43 115 -66 39 -23 160 -94 270 -157 110 -64 216 -125 235 -136 19 -12
59 -33 88 -49 28 -15 52 -31 52 -35 0 -4 5 -8 11 -8 6 0 38 -16 72 -36 34 -20
87 -50 117 -67 30 -16 62 -36 71 -43 8 -8 18 -14 22 -14 3 0 40 -20 80 -45 41
-25 80 -45 86 -45 6 0 11 -4 11 -10 0 -5 4 -10 9 -10 5 0 134 -73 287 -162
154 -88 293 -169 309 -178 17 -9 75 -43 130 -75 121 -71 207 -120 260 -150 22
-13 108 -62 190 -110 83 -48 175 -102 205 -118 30 -17 111 -64 179 -104 67
-40 127 -73 132 -73 5 0 9 -4 9 -10 0 -5 5 -10 11 -10 18 0 193 -108 230 -142
64 -59 117 -152 136 -238 12 -55 6 -173 -12 -225 -40 -116 -118 -205 -245
-280 -47 -27 -87 -50 -90 -50 -3 0 -16 -8 -30 -17 -37 -23 -183 -106 -285
-162 -11 -6 -22 -13 -25 -16 -3 -3 -14 -10 -25 -16 -86 -46 -111 -60 -115 -64
-3 -3 -18 -12 -35 -20 -16 -8 -32 -18 -35 -21 -3 -3 -30 -20 -61 -36 -31 -17
-103 -58 -160 -91 -57 -33 -120 -69 -139 -80 -116 -66 -446 -255 -448 -257 -3
-3 146 -93 178 -108 8 -4 29 -15 45 -25 17 -10 50 -30 75 -44 77 -43 154 -88
170 -98 8 -6 31 -18 50 -26 19 -9 37 -19 40 -23 3 -4 12 -11 20 -14 8 -4 38
-21 65 -37 28 -17 61 -35 75 -41 14 -6 32 -16 40 -24 8 -7 38 -25 65 -40 28
-14 73 -40 100 -56 28 -17 58 -33 68 -36 9 -3 17 -9 17 -14 0 -5 5 -9 11 -9 6
0 37 -15 68 -34 31 -18 76 -45 101 -59 234 -130 323 -186 363 -232 47 -52 57
-67 86 -127 63 -133 61 -289 -6 -418 -29 -58 -139 -180 -160 -180 -7 0 -13 -3
-13 -7 0 -5 -10 -13 -23 -19 -12 -5 -83 -46 -157 -89 -74 -43 -216 -125 -315
-183 -99 -57 -196 -114 -215 -125 -19 -11 -48 -27 -65 -35 -16 -8 -37 -20 -45
-27 -15 -12 -112 -67 -157 -89 -13 -6 -23 -14 -23 -18 0 -5 -4 -8 -9 -8 -4 0
-46 -22 -92 -50 -46 -27 -100 -58 -119 -67 -19 -10 -36 -21 -38 -25 -2 -5 -7
-8 -11 -8 -5 0 -102 -55 -217 -122 -115 -67 -226 -131 -246 -142 -67 -38 -450
-260 -497 -289 -25 -15 -55 -32 -66 -37 -11 -6 -34 -19 -51 -29 -29 -18 -255
-149 -314 -182 -14 -8 -28 -18 -31 -22 -3 -5 -8 -7 -10 -6 -2 2 -15 -4 -29
-13 -81 -50 -129 -76 -148 -82 -12 -4 -22 -12 -22 -17 0 -5 -4 -9 -8 -9 -5 0
-141 -77 -303 -171 -162 -94 -312 -181 -334 -192 -22 -12 -42 -24 -45 -27 -8
-8 -62 -40 -100 -58 -19 -9 -37 -20 -40 -23 -11 -13 -127 -69 -172 -83 -68
-20 -199 -14 -273 12 -113 41 -210 129 -258 232 -44 94 -44 92 -42 1149 1 553
5 1019 9 1034 4 15 17 56 30 90 71 188 183 293 486 456 25 13 48 29 52 35 4 6
8 7 8 3 0 -5 12 0 28 11 15 10 133 80 262 154 129 75 259 150 288 167 29 17
55 31 58 31 3 0 30 16 60 35 30 19 56 35 59 35 2 0 45 25 95 55 50 30 92 55
94 55 3 0 168 94 226 130 8 5 95 55 192 111 l178 102 -68 39 c-37 22 -114 67
-172 99 -58 33 -112 64 -120 69 -24 15 -241 141 -285 165 -62 34 -258 147
-618 356 -70 41 -149 85 -175 99 -26 14 -48 28 -50 33 -2 4 -9 7 -17 7 -7 0
-18 7 -25 15 -6 8 -15 14 -18 12 -4 -1 -18 6 -32 14 -14 9 -74 45 -134 80
-236 139 -383 351 -414 599 -7 56 -7 2034 0 2075 24 140 137 263 275 299 64
16 158 12 213 -10z"/>
<path d="M2440 7847 c1 -17 0 -463 0 -990 -1 -526 1 -961 4 -966 5 -8 94 -61
226 -134 30 -17 57 -34 58 -39 2 -4 8 -8 14 -8 5 0 37 -16 71 -36 34 -20 78
-46 97 -57 19 -11 49 -28 65 -38 17 -11 37 -22 45 -26 8 -4 64 -35 124 -70 60
-35 113 -63 117 -63 5 0 9 -4 9 -9 0 -5 8 -11 18 -14 17 -6 61 -31 211 -119
44 -27 83 -48 86 -48 4 0 25 -13 48 -29 23 -15 47 -30 52 -32 27 -10 290 -164
293 -171 2 -5 7 -8 11 -8 5 0 48 -23 97 -51 49 -29 109 -63 134 -77 25 -14 62
-36 82 -49 21 -12 40 -23 42 -23 2 0 54 -29 115 -65 l111 -66 68 37 c37 21 69
40 72 43 5 6 28 19 110 63 19 10 58 32 85 49 28 16 59 34 70 39 11 6 36 20 55
31 19 12 141 82 270 157 411 237 662 382 720 417 25 14 57 31 73 38 15 6 27
15 27 19 0 4 6 8 14 8 7 0 19 7 26 15 7 8 16 12 21 9 5 -3 9 -2 9 3 0 4 25 21
57 38 32 16 50 31 42 34 -8 2 -16 7 -19 10 -3 4 -52 33 -110 66 -58 32 -113
66 -124 74 -10 9 -21 16 -25 15 -3 -1 -22 9 -41 21 -19 12 -60 35 -90 52 -53
29 -339 194 -370 213 -40 25 -124 70 -132 70 -4 0 -8 5 -8 10 0 6 -4 10 -9 10
-8 0 -290 159 -351 198 -14 9 -27 17 -30 17 -6 0 -191 108 -242 141 -21 13
-41 24 -44 24 -4 0 -39 20 -78 44 -39 23 -78 46 -86 50 -8 3 -28 15 -45 26
-16 10 -41 25 -55 33 -59 31 -285 162 -290 167 -3 3 -23 15 -45 27 -22 11 -56
30 -75 41 -19 11 -73 41 -120 68 -47 27 -86 52 -88 56 -2 4 -8 8 -13 8 -5 0
-53 25 -107 56 -109 64 -132 77 -217 125 -33 18 -66 39 -73 46 -7 7 -17 13
-22 13 -5 0 -50 25 -100 55 -50 30 -93 55 -96 55 -2 0 -34 18 -70 40 -36 22
-68 40 -70 40 -3 0 -21 11 -42 23 -20 13 -57 35 -82 49 -67 37 -109 62 -168
97 -29 17 -57 31 -62 31 -6 0 -10 5 -10 10 0 6 -4 10 -9 10 -6 0 -60 29 -121
65 l-111 65 1 -33z m620 -782 c113 -65 217 -126 232 -136 15 -11 29 -19 32
-19 3 0 55 -29 116 -65 61 -36 130 -76 153 -89 23 -13 141 -81 262 -151 121
-70 236 -136 255 -147 19 -11 53 -30 75 -44 22 -14 54 -31 70 -40 17 -8 42
-22 57 -32 52 -33 253 -147 266 -150 6 -2 12 -8 12 -13 0 -5 3 -8 8 -7 4 1 18
-5 32 -14 63 -40 202 -118 210 -118 6 0 10 -4 10 -8 0 -4 12 -13 28 -19 15 -7
36 -18 47 -25 50 -32 145 -88 149 -88 2 0 92 -52 200 -115 109 -63 201 -115
206 -115 18 0 15 -25 -4 -36 -12 -6 -113 -64 -226 -129 -113 -65 -221 -127
-240 -138 -19 -10 -124 -71 -232 -133 -109 -63 -201 -114 -205 -114 -5 0 -40
18 -78 41 -39 22 -92 54 -120 69 -179 102 -211 120 -222 130 -7 5 -14 10 -17
10 -4 0 -170 95 -476 273 -85 49 -175 101 -200 115 -25 14 -112 64 -195 112
-82 48 -179 103 -215 124 -36 20 -72 41 -80 46 -8 5 -42 25 -75 44 l-60 34 1
534 c1 293 2 534 3 536 0 2 4 1 9 -1 4 -2 99 -57 212 -122z"/>
<path d="M4533 4122 c-17 -9 -58 -33 -90 -52 -32 -19 -67 -39 -78 -45 -105
-59 -157 -88 -169 -98 -12 -9 -467 -271 -556 -320 -30 -16 -66 -38 -80 -47
-14 -9 -59 -36 -100 -59 -41 -23 -82 -46 -90 -51 -8 -6 -71 -42 -140 -81 -291
-166 -635 -366 -682 -396 -21 -12 -42 -23 -46 -23 -5 0 -20 -10 -34 -23 l-25
-23 1 -985 c1 -812 3 -984 14 -981 15 3 490 275 509 292 7 5 15 10 17 10 3 0
130 72 281 160 152 88 280 160 285 160 6 0 10 5 10 10 0 6 6 10 14 10 7 0 19
7 26 15 7 9 15 13 18 10 3 -3 12 1 21 8 9 8 52 34 96 59 132 75 141 81 370
213 121 69 231 134 245 143 14 9 27 17 30 17 3 0 34 17 70 38 36 21 72 42 80
47 8 5 46 27 84 49 38 23 73 41 77 41 5 0 9 5 9 10 0 6 4 10 9 10 5 0 64 32
132 71 68 40 203 117 299 172 96 56 177 105 178 109 2 4 12 8 22 8 10 0 21 4
24 8 4 8 90 60 200 122 17 9 103 59 191 110 88 51 180 104 205 118 25 14 77
44 115 67 39 23 103 59 142 81 40 21 73 41 73 44 0 7 -89 60 -100 60 -6 0 -10
4 -10 9 0 5 -8 11 -17 14 -10 4 -43 21 -74 39 -31 18 -94 54 -140 81 -46 26
-91 52 -99 57 -15 10 -209 121 -305 175 -27 16 -60 33 -72 39 -13 6 -23 14
-23 19 0 4 -4 7 -9 7 -8 0 -174 92 -251 139 -38 23 -306 176 -315 180 -5 2
-12 7 -15 10 -5 6 -81 49 -117 66 -13 5 -23 13 -23 18 0 4 -6 7 -14 7 -7 0
-19 7 -26 15 -7 9 -15 13 -18 11 -2 -3 -21 6 -41 19 -42 29 -46 29 -88 7z
m452 -672 c17 -9 86 -49 153 -89 68 -39 127 -71 132 -71 6 0 10 -4 10 -10 0
-5 5 -10 11 -10 13 0 196 -107 204 -120 3 -4 -10 -14 -29 -20 -19 -6 -36 -14
-38 -18 -3 -6 -262 -158 -343 -201 -16 -9 -31 -19 -33 -23 -2 -5 -8 -8 -12 -8
-5 0 -33 -14 -62 -31 -29 -18 -66 -40 -83 -49 -16 -9 -118 -68 -225 -130 -107
-61 -213 -122 -235 -135 -22 -12 -107 -61 -189 -109 -82 -47 -152 -86 -157
-86 -5 0 -9 -4 -9 -8 0 -4 -12 -13 -27 -19 -16 -7 -48 -24 -72 -38 -82 -49
-344 -200 -656 -379 -170 -98 -322 -187 -337 -197 -15 -11 -29 -19 -32 -19 -3
0 -28 -14 -57 -30 -28 -17 -54 -29 -56 -26 -4 4 -7 924 -4 1044 1 12 9 26 19
29 9 4 19 9 22 12 3 4 16 12 30 19 28 15 55 30 230 132 69 40 143 83 165 96
22 12 81 45 130 74 228 133 282 164 315 183 73 41 326 188 340 198 8 5 27 15
43 22 15 6 27 15 27 19 0 4 4 8 10 8 5 0 55 27 111 60 55 33 102 60 104 60 1
0 44 24 95 54 l92 54 192 -111 c105 -60 205 -118 221 -127z"/>
</g>
</svg>
