<?xml version="1.0" encoding="UTF-8"?>
<svg width="139px" height="32px" viewBox="0 0 139 32" version="1.1" xmlns="http://www.w3.org/2000/svg" xmlns:xlink="http://www.w3.org/1999/xlink">
    <!-- Generator: Sketch 61.2 (89653) - https://sketch.com -->
    <title>wingu-logo</title>
    <desc>Created with Sketch.</desc>
    <g id="Page-1" stroke="none" stroke-width="1" fill="none" fill-rule="evenodd">
        <g id="wingu-logo" fill="#FFFFFF" fill-rule="nonzero">
            <path d="M12.9,32 L12.9,32 C11.2766967,30.3607865 9.78414174,28.5970706 8.436,26.725 C14.222,22.599 16.296,19.19 15.836,14.565 C15.7417289,13.6812769 15.5893997,12.804716 15.38,11.941 C15.174,11.073 14.93,10.219 14.716,9.466 L14.716,9.449 C13.816,6.302 13.041,3.584 14.409,0.629 C15.628,0.429 16.895,0.281 18.176,0.177 C17.264,4.743 19.39,7.825 21.852,11.394 C22.166,11.849 22.452,12.264 22.72,12.663 C25.831,17.274 25.192,21.763 20.965,24.978 C20.943,24.995 20.851,25.063 20.829,25.078 C17.9147097,27.0547814 15.252096,29.3792374 12.9,32 L12.9,32 Z M31.727,32 L31.727,32 C29.3470748,29.3369464 26.6434258,26.9820036 23.679,24.99 C27.237,21.258 27.435,16.39 24.222,11.62 C23.894,11.135 23.579,10.678 23.342,10.335 C22.1842431,8.80035666 21.2005442,7.14185307 20.409,5.39 C19.7179416,3.69644044 19.5985627,1.82359566 20.069,0.056 C20.913,0.017 21.627,0 22.313,0 C22.9,0 23.505,0.011 24.113,0.033 C23.965,6.074 26.772,8.78 29.487,11.4 L30.179,12.066 C33.69,15.44 37.006,18.628 37.559,24.713 C35.8762108,27.3402782 33.9210671,29.7827832 31.726,32 L31.727,32 Z M113.341,30.6231506 C112.250679,30.6250883 111.163338,30.5090785 110.098,30.277 C109.574874,30.1593582 109.05928,30.0104238 108.554,29.831 L110.043,26.737 L110.111,26.753 L110.133,26.758 L110.167,26.766 L110.181,26.766 L110.273,26.787 C111.195264,26.9958885 112.137398,27.1045189 113.083,27.111 C113.880279,27.1175845 114.673207,26.9929188 115.43,26.742 C116.121885,26.5093896 116.738437,26.0949011 117.215,25.542 C117.690579,24.9857271 117.944426,24.2736726 117.928,23.542 L117.928,22.5 C116.746954,23.8676295 114.99196,24.600883 113.189,24.48 C111.223518,24.5217263 109.348426,23.6555614 108.106,22.132 C106.747455,20.4466641 106.043579,18.327223 106.124,16.164 C106.038646,14.0028216 106.743208,11.884516 108.106,10.205 C109.355902,8.6940507 111.228565,7.83821869 113.189,7.882 C115.03221,7.7779632 116.816105,8.55144169 118,9.968 L118,9.962 L118,9.962 L118,9.955 L118,9.949 C118.272,9.434 118.6,8.825 118.959,8.188 L121.803,8.188 L121.803,23.638 C121.819093,24.6989084 121.58475,25.7486572 121.119,26.702 C120.687135,27.5740547 120.048172,28.3270083 119.258,28.895 C118.439505,29.469896 117.530639,29.9038802 116.569,30.179 C115.519107,30.4790874 114.431923,30.6285794 113.34,30.6231506 L113.341,30.6231506 Z M113.958,11.411 C112.770617,11.3676357 111.640068,11.92034 110.945,12.884 C110.299363,13.8582275 109.971973,15.0088095 110.008,16.177 C109.971906,17.3451987 110.299302,18.4958003 110.945,19.47 C111.66858,20.3994697 112.780586,20.9430293 113.9585,20.9430293 C115.136414,20.9430293 116.24842,20.3994697 116.972,19.47 C117.616912,18.495439 117.944236,17.3450923 117.909,16.177 C117.944236,15.0089077 117.616912,13.858561 116.972,12.884 C116.276534,11.9197371 115.145081,11.3669578 113.957,11.411 L113.958,11.411 Z M7.389,25.207 L7.389,25.207 C5.99778622,23.0936674 4.77949388,20.871446 3.746,18.562 C6.922,16.062 7.422,13.136 7.646,10.593 C7.70651201,9.82424725 7.72453944,9.05274011 7.7,8.282 C7.689,7.76 7.666,7.236 7.645,6.775 C7.47569126,5.2241914 7.56626767,3.65600278 7.913,2.135 C9.344,1.699 10.813,1.325 12.287,1.021 C11.297,4.159 12.139,7.11 12.954,9.964 L12.967,10.008 C13.187,10.781 13.414,11.579 13.601,12.37 C13.7916067,13.1536636 13.9302419,13.9490617 14.016,14.751 C14.2480013,16.4454715 13.9106799,18.1690118 13.057,19.651 C12.051,21.402 10.251,23.168 7.39,25.21 L7.389,25.207 Z M130.689,24.514 C129.132973,24.601242 127.614061,24.0180404 126.516269,22.9118377 C125.418477,21.8056349 124.846885,20.282316 124.946,18.727 L124.946,8.218 L128.835,8.218 L128.835,17.71 C128.784397,18.5660302 129.08984,19.4049117 129.679,20.028 C130.260297,20.5828386 131.040921,20.879584 131.844,20.851 C132.695408,20.874874 133.524768,20.5783175 134.168,20.02 C134.809977,19.4288744 135.155271,18.582501 135.11,17.711 L135.11,8.218 L139,8.218 L139,24.129 L136.162,24.129 C135.862,23.6 135.555,23.038 135.262,22.458 L135.257,22.448 C134.77355,23.086659 134.141622,23.5977624 133.416,23.937 C132.563263,24.3348152 131.63079,24.5321876 130.69,24.514 L130.689,24.514 Z M93.322,24.124 L89.432,24.124 L89.432,8.184 L92.284,8.184 C92.721,8.935 93.05,9.562 93.208,9.868 L93.215,9.882 L93.215,9.894 L93.215,9.894 L93.215,9.894 C93.6917175,9.27945877 94.3090191,8.78836103 95.015,8.462 C95.8550255,8.06541138 96.7752186,7.86795827 97.704,7.885 C99.2627449,7.80110584 100.78316,8.38667918 101.882936,9.49447722 C102.982712,10.6022753 103.55722,12.126906 103.462,13.685 L103.462,24.122 L99.562,24.122 L99.562,14.7 C99.6112858,13.8423683 99.3061422,13.0021389 98.718,12.376 C98.1391153,11.8163997 97.3576621,11.5160907 96.553,11.544 C95.7097964,11.5237988 94.8902052,11.8235534 94.259,12.383 C93.6178562,12.9780588 93.2729647,13.8263746 93.317,14.7 L93.317,24.127 L93.322,24.124 Z M85.855,24.124 L81.955,24.124 L81.955,8.184 L85.855,8.184 L85.855,24.122 L85.855,24.124 Z M65.309,24.124 L60.48,24.124 L55.857,8.235 L59.869,8.235 L63.069,20.114 L66.6,8.235 L69.23,8.235 L72.744,20.114 L75.924,8.235 L79.936,8.235 L75.347,24.117 L70.517,24.117 L67.917,15.191 L65.317,24.117 L65.309,24.124 Z M39.032,22.251 L39.032,22.251 C37.879,16.915 34.604,13.768 31.437,10.725 L30.746,10.06 C29.4243629,8.90063866 28.2691223,7.56435542 27.313,6.089 C26.2889045,4.27794469 25.8087251,2.21001355 25.93,0.133 C27.311,0.233 28.692,0.39 30.036,0.601 C30.4906512,3.03382519 31.7629339,5.23826829 33.642,6.849 C35.4652972,8.27094369 37.4686721,9.44546343 39.6,10.342 C40.777,10.905 41.995,11.487 43.225,12.176 C42.2125743,15.680581 40.8069721,19.0593939 39.035,22.248 L39.032,22.251 Z M3,16.8 L3,16.8 C1.47622868,13.1182469 0.466745665,9.24418757 0,5.287 C1.91303202,4.33236488 3.88348927,3.49742537 5.9,2.787 C5.74530618,4.13411864 5.71885418,5.49288128 5.821,6.845 L5.821,6.854 L5.821,6.917 L5.821,6.944 C5.84,7.364 5.861,7.851 5.871,8.322 C5.89280268,9.02475405 5.87544246,9.72817702 5.819,10.429 C5.637,12.569 5.266,14.822 3,16.8 Z M43.719,10.344 L43.719,10.344 C42.595,9.731 41.512,9.212 40.465,8.71 L40.426,8.691 L40.383,8.671 C36.401,6.771 33.255,5.271 32.015,0.952 C36.3914715,1.8320783 40.6315842,3.28983771 44.624,5.287 L44.624,5.294 C44.4429837,6.99643648 44.1388541,8.68352001 43.714,10.342 L43.719,10.344 Z M83.9,5.615 C83.2988474,5.6364924 82.7156378,5.40805958 82.289,4.984 C81.8690547,4.54718538 81.6445616,3.95852255 81.667,3.353 C81.6453213,2.74492651 81.8695319,2.15376049 82.289,1.713 C82.7134989,1.28492983 83.2975158,1.05364319 83.9,1.075 C84.5030442,1.05455021 85.0880193,1.28268325 85.518,1.706 C85.9450169,2.14541523 86.1731026,2.74075148 86.149,3.353 C86.1778883,3.95903128 85.9506833,4.54929161 85.522906,4.97954159 C85.0951287,5.40979157 84.5061877,5.64039489 83.9,5.615 Z" id="Fill_1"></path>
        </g>
    </g>
</svg>