<svg xmlns="http://www.w3.org/2000/svg" xmlns:xlink="http://www.w3.org/1999/xlink" width="100%" height="126" viewBox="0 0 414 126">
    <defs>
        <path id="prefix__a" d="M0.237 0.096L126.084 0.096 126.084 125.825 0.237 125.825z"/>
        <path id="prefix__c" d="M74.544.266c41.01 0 74.254 33.215 74.254 74.187 0 40.972-33.244 74.185-74.254 74.185-41.011 0-74.256-33.213-74.256-74.185l.01-1.227"/>
    </defs>
    <g fill="none" fill-rule="evenodd">
        <g transform="rotate(-90 102 151) translate(126.147 377.474)">
            <mask id="prefix__b" fill="#fff">
                <use xlink:href="#prefix__a"/>
            </mask>
            <path fill="#FFBE00" d="M126.084.096H.237v125.729c69.503 0 125.847-56.291 125.847-125.73" mask="url(#prefix__b)"/>
        </g>
        <path fill="#F3CD48" d="M198.33 377.57h-71.947v71.879c39.735 0 71.947-32.181 71.947-71.879" transform="rotate(-90 102 151)"/>
        <path fill="#FFF" d="M126.383 377.57L252.23 377.57 252.23 251.841 126.383 251.841z" transform="rotate(-90 102 151) matrix(-1 0 0 1 378.614 0)"/>
        <path fill="#060639" d="M126.384 251.841L126.384 377.57 252.231 377.57z" transform="rotate(-90 102 151) matrix(-1 0 0 1 378.614 0)"/>
        <path fill="#FFF" d="M126.383 251.842L252.23 251.842 252.23 126.113 126.383 126.113z" transform="rotate(-90 102 151) matrix(-1 0 0 1 378.614 0)"/>
        <path fill="#F3CD48" d="M252.23 126.113L126.383 126.113 126.383 251.842z" transform="rotate(-90 102 151) matrix(-1 0 0 1 378.614 0)"/>
        <g transform="rotate(-90 102 151) translate(6.763 127.135)"/>
        <path fill="#7444BE" d="M126.384.384v125.729H252.23c0-69.438-56.344-125.73-125.847-125.73" transform="rotate(-90 102 151)"/>
        <path fill="#7444BE" d="M155.199 280.869L155.199 222.526 126 251.698z" transform="rotate(-90 102 151) matrix(-1 0 0 1 281.2 0)"/>
        <path fill="#FFBE00" d="M189.308 188.977L252.23 126.113 126.383 126.113z" transform="rotate(-90 102 151) matrix(-1 0 0 1 378.614 0)"/>
        <path fill="#060639" d="M156.556 297.874c2.895 2.892 2.895 7.577 0 10.467-2.892 2.892-7.582 2.892-10.476 0-2.893-2.89-2.893-7.575 0-10.467 2.894-2.89 7.584-2.89 10.476 0M181.76 272.695c2.893 2.892 2.893 7.577 0 10.467-2.893 2.892-7.585 2.892-10.478 0-2.892-2.89-2.892-7.575 0-10.467 2.893-2.89 7.585-2.89 10.477 0M206.962 247.516c2.893 2.891 2.893 7.577 0 10.467-2.893 2.891-7.584 2.891-10.477 0-2.892-2.89-2.892-7.576 0-10.467 2.893-2.89 7.584-2.89 10.477 0M171.282 222.032c-2.893 2.89-2.893 7.577 0 10.467 2.893 2.891 7.584 2.891 10.477 0 2.894-2.89 2.894-7.577 0-10.467-2.893-2.89-7.584-2.89-10.477 0M156.557 196.853c2.893 2.89 2.893 7.577 0 10.467-2.894 2.891-7.584 2.891-10.477 0-2.894-2.89-2.894-7.577 0-10.467 2.893-2.89 7.583-2.89 10.477 0M126.384.384v125.729l88.986-88.905C192.597 14.456 161.135.384 126.384.384" transform="rotate(-90 102 151)"/>
    </g>
</svg>
