<?xml version="1.0" encoding="UTF-8"?>
<svg width="336px" height="60px" viewBox="0 0 336 60" version="1.1" xmlns="http://www.w3.org/2000/svg" xmlns:xlink="http://www.w3.org/1999/xlink">
    <!-- Generator: Sketch 54.1 (76490) - https://sketchapp.com -->
    <title>wingudata-logo-horizontal-full</title>
    <desc>Created with Sketch.</desc>
    <g id="Page-1" stroke="none" stroke-width="1" fill="none" fill-rule="evenodd">
        <g id="Login-2" transform="translate(-653.000000, -124.000000)" fill="#2F1F7E" fill-rule="nonzero">
            <g id="Group-3" transform="translate(635.000000, 124.000000)">
                <g id="wingudata-logo-horizontal-full" transform="translate(18.000000, 0.000000)">
                    <rect id="Rectangle" x="98.8473821" y="15.3376441" width="7.42468351" height="29.9069698"></rect>
                    <path d="M128.818977,14.7560199 C127.054274,14.7214235 125.305178,15.0923694 123.706429,15.8402822 C122.367487,16.4504767 121.193319,17.3711031 120.281309,18.525806 L120.281309,18.525806 L120.281309,18.525806 L120.281309,18.525806 C120.216684,18.4037368 119.491449,17.010711 118.507714,15.3376441 L113.086403,15.3376441 L113.086403,45.2374334 L120.482364,45.2374334 L120.482364,27.5589316 C120.396821,25.916018 121.053102,24.321438 122.27032,23.2147019 C123.474583,22.1625021 125.030255,21.6012298 126.628911,21.6421626 C128.154436,21.5852547 129.63823,22.1471802 130.743363,23.2003408 C131.859823,24.3674287 132.439995,25.9466406 132.344624,27.5589316 L132.344624,45.2374334 L139.769308,45.2374334 L139.769308,25.6489067 C139.769308,22.35543 138.754458,19.7225635 136.724757,17.7503072 C134.602297,15.7319253 131.752717,14.6594471 128.826157,14.7775616" id="Path"></path>
                    <path d="M199.920733,15.402269 L199.920733,33.2100205 C200.001516,34.8416802 199.345128,36.4233381 198.132778,37.5183475 C196.90733,38.5715573 195.331789,39.1274801 193.716742,39.0765258 C192.185634,39.1515043 190.689098,38.6051909 189.566387,37.5614308 C188.444959,36.4003663 187.86379,34.8210457 187.965126,33.2100205 L187.965126,15.402269 L180.569165,15.402269 L180.569165,35.1200455 C180.569165,38.4135221 181.579228,41.0463886 183.599355,43.018645 C185.723268,45.0332183 188.573191,46.100644 191.497954,45.9770295 C193.285985,46.0139663 195.058942,45.6431678 196.682307,44.8927672 C198.059995,44.2602433 199.260924,43.2985138 200.179233,42.0923547 C200.179233,42.0923547 200.93319,43.6074496 201.902564,45.2517944 L207.302333,45.2517944 L207.302333,15.402269 L199.920733,15.402269 Z" id="Path"></path>
                    <path d="M102.545363,1.9961915 C101.403445,1.9537908 100.295329,2.38819337 99.4864506,3.19534251 C98.6881735,4.014839 98.2600616,5.12533519 98.3016607,6.26861576 C98.2478195,7.40977091 98.6776066,8.52073965 99.4854228,9.32855582 C100.293239,10.136372 101.404208,10.566159 102.545363,10.5123178 C103.689918,10.5569637 104.802922,10.1314795 105.625817,9.33470847 C106.432966,8.52583051 106.867368,7.41771376 106.824968,6.27579631 C106.870193,5.12491437 106.435965,4.00684076 105.625817,3.18816197 C104.805859,2.390605 103.695683,1.96261661 102.552543,2.00337205" id="Path"></path>
                    <path d="M159.702501,39.277581 C154.439161,39.277581 152.191651,34.890268 152.191651,30.3378025 C152.191651,25.785337 154.439161,21.398024 159.702501,21.398024 C164.96584,21.398024 167.213351,25.785337 167.213351,30.3378025 C167.213351,34.890268 164.96584,39.277581 159.702501,39.277581 M167.392864,18.6694169 L167.392864,18.6694169 C165.475659,16.1849484 162.244414,14.7488394 158.23767,14.7488394 C154.52029,14.6537374 150.962278,16.2582791 148.572656,19.1074302 C146.059465,22.0179444 144.80287,25.7446473 144.80287,30.2875387 C144.80287,34.8304302 146.059465,38.5643136 148.572656,41.4891889 C150.945773,44.365776 154.509708,45.9915236 158.23767,45.8980435 C163.50819,45.8980435 166.401949,43.4063944 167.249254,42.1785212 L167.249254,44.1603516 C167.275251,45.5404788 166.783388,46.8802937 165.870589,47.9157766 C164.961428,48.9586533 163.788226,49.7374806 162.474191,50.1704678 C161.037492,50.6537019 159.530843,50.8963186 158.015073,50.8885222 C156.217663,50.8823244 154.426292,50.6800729 152.672747,50.2853565 L152.234734,50.1848288 L149.405599,55.9938897 C150.36651,56.3315949 151.347316,56.6097697 152.342442,56.8268329 C154.368512,57.2687924 156.436831,57.4879042 158.51053,57.4802625 C160.596049,57.4949507 162.672999,57.2120599 164.678618,56.6401388 C166.504409,56.1239434 168.232006,55.3086726 169.791167,54.2274757 C171.292228,53.1687007 172.508298,51.7552972 173.331175,50.1130234 C174.218089,48.3298912 174.663813,46.359841 174.630854,44.3685874 L174.630854,15.3376441 L169.223903,15.3376441 C168.075016,17.3625578 167.378503,18.6765975 167.378503,18.6765975" id="Shape"></path>
                    <polygon id="Path" points="81.3412135 37.7265833 74.6633067 15.4309912 69.6584668 15.4309912 62.9446573 37.7265833 56.8627357 15.4309912 49.2369969 15.4309912 58.025984 45.2374334 67.209901 45.2374334 72.1572965 28.4852219 77.1118725 45.2374334 86.288609 45.2374334 95.0129711 15.4309912 87.3872324 15.4309912"></polygon>
                    <path d="M233.532864,16.1418651 L233.532864,17.9513624 C233.52854,18.1432788 233.429798,18.3207012 233.268978,18.4255217 C233.108157,18.5303422 232.905973,18.549059 232.728643,18.4755422 C227.388096,16.3677448 221.297385,18.073034 217.827757,22.6475219 C214.358128,27.2220098 214.358128,33.5469423 217.827757,38.1214302 C221.297385,42.6959181 227.388096,44.4012074 232.728643,42.2934099 C232.907134,42.2194572 233.110698,42.2389649 233.271895,42.3454704 C233.433093,42.451976 233.530881,42.6315756 233.532864,42.8247702 L233.532864,44.8066007 C233.538318,45.3061841 233.218311,45.751285 232.743004,45.905224 C231.249576,46.3785378 229.692549,46.6206881 228.125914,46.6232785 C221.76447,46.6341426 215.983875,42.9255072 213.342144,37.1385088 C210.700414,31.3515105 211.685243,24.5544988 215.860827,19.7552715 C220.036412,14.9560442 226.631889,13.0405964 232.728643,14.8565476 C233.257412,15.0527453 233.587651,15.5805382 233.532864,16.1418651 Z M221.053077,31.2210096 C221.369571,33.7749897 223.040389,35.9590692 225.422583,36.932791 C227.804777,37.9065129 230.527091,37.518126 232.541949,35.917086 C232.711274,35.7673279 232.952688,35.7307973 233.158741,35.8237533 C233.364793,35.9167094 233.497174,36.121869 233.496962,36.3479187 L233.496962,38.7749429 C233.500506,39.1965912 233.271359,39.5858649 232.900976,39.7873997 C231.393936,40.5751114 229.718694,40.9865311 228.018206,40.9865507 C223.589538,41.0039645 219.61175,38.2803218 218.026462,34.1450748 C216.441175,30.0098278 217.578893,25.3251057 220.884279,22.3775938 C224.189665,19.4300818 228.973602,18.8342865 232.900976,20.8810248 C233.272515,21.0813616 233.502115,21.4714039 233.496962,21.8934816 L233.496962,24.3420475 C233.493487,24.5680512 233.35939,24.7715744 233.153095,24.863945 C232.946801,24.9563157 232.705673,24.9208033 232.534769,24.7728802 C230.273027,22.9864351 227.157633,22.7390046 224.642259,24.146042 C222.126885,25.5530794 220.7073,28.3372636 221.045897,31.1994679 L221.053077,31.2210096 Z M238.846468,1.87412224 L238.846468,45.0148365 C238.846491,45.3239492 238.722722,45.6201971 238.502802,45.8374194 C238.282881,46.0546417 237.985128,46.1747441 237.676039,46.1709042 L236.598957,46.1709042 C236.297793,46.207847 235.995822,46.108744 235.775116,45.9005304 C235.554409,45.6923167 235.437899,45.3966257 235.45725,45.0938225 L235.45725,45.0938225 L235.45725,1.7089697 L235.45725,1.7089697 C235.464736,1.43722412 235.580427,1.17971877 235.778625,0.993655781 C235.976822,0.807592792 236.241114,0.708379284 236.51279,0.718054498 L237.676039,0.718054498 C237.985128,0.714214587 238.282881,0.834316949 238.502802,1.0515393 C238.722722,1.26876164 238.846491,1.56500949 238.846468,1.87412224 L238.846468,1.87412224 Z M244.353946,30.3593442 L244.353946,45.0076559 C244.353946,45.6461345 243.836356,46.1637237 243.197878,46.1637237 L242.127977,46.1637237 C241.489498,46.1637237 240.971909,45.6461345 240.971909,45.0076559 L240.971909,1.87412224 C240.971909,1.23564366 241.489498,0.718054498 242.127977,0.718054498 L243.197878,0.718054498 C243.836356,0.718054498 244.353946,1.23564366 244.353946,1.87412224 L244.353946,30.3665247 L244.353946,30.3593442 Z" id="Shape"></path>
                    <path d="M269.342242,16.1418651 L269.342242,17.9513624 C269.337918,18.1432788 269.239176,18.3207012 269.078355,18.4255217 C268.917535,18.5303422 268.715351,18.549059 268.538021,18.4755422 C263.197473,16.3677448 257.106763,18.073034 253.637134,22.6475219 C250.167506,27.2220098 250.167506,33.5469423 253.637134,38.1214302 C257.106763,42.6959181 263.197473,44.4012074 268.538021,42.2934099 C268.717264,42.2163245 268.923218,42.2342505 269.086447,42.3411443 C269.249677,42.4480382 269.348434,42.6296567 269.349423,42.8247702 L269.349423,44.8066007 C269.354876,45.3061841 269.034869,45.751285 268.559563,45.905224 C267.065955,46.3777706 265.509046,46.6199026 263.942472,46.6232785 C257.612408,46.5831551 251.883993,42.8643047 249.270934,37.0986096 C246.657874,31.3329144 247.637623,24.5738701 251.780252,19.7874372 C255.922882,15.0010044 262.47146,13.0617498 268.552382,14.8206448 C269.087917,15.0273138 269.413727,15.5723038 269.342242,16.1418651 L269.342242,16.1418651 Z M269.342242,21.8863011 L269.342242,24.3348669 C269.338767,24.5608706 269.20467,24.7643938 268.998376,24.8567645 C268.792081,24.9491351 268.550954,24.9136228 268.380049,24.7656996 C266.11326,22.9720973 262.987304,22.7262125 260.467962,24.1433423 C257.94862,25.5604722 256.535481,28.3595979 256.891177,31.2281901 C257.207671,33.7821702 258.878489,35.9662498 261.260683,36.9399716 C263.642877,37.9136934 266.365191,37.5253066 268.380049,35.9242665 C268.551174,35.780859 268.789286,35.748067 268.992805,35.8398799 C269.196323,35.9316927 269.329322,36.1319032 269.335062,36.3550992 L269.335062,38.7749429 C269.340215,39.1970206 269.110615,39.5870629 268.739076,39.7873997 C267.232137,40.5753797 265.556828,40.9868158 263.856306,40.9865507 C259.427638,41.0039645 255.44985,38.2803218 253.864562,34.1450748 C252.279275,30.0098278 253.416993,25.3251057 256.722379,22.3775938 C260.027765,19.4300818 264.811702,18.8342865 268.739076,20.8810248 C269.119994,21.0860742 269.351151,21.4899018 269.335062,21.9222038 L269.342242,21.8863011 Z M274.655845,15.6033242 L274.655845,45.0148365 C274.655845,45.653315 274.138256,46.1709042 273.499778,46.1709042 L272.422696,46.1709042 C271.754905,46.1709042 271.280989,45.98421 271.280989,45.2661555 L271.280989,45.2661555 L271.280989,15.4668939 L271.280989,15.4668939 C271.290344,15.1983159 271.406095,14.9444761 271.602738,14.7613014 C271.799382,14.5781266 272.060783,14.4806471 272.329349,14.4903398 L273.506958,14.4903398 C274.137035,14.4981555 274.644799,15.0091137 274.648665,15.639227 L274.655845,15.6033242 Z M280.163323,30.330622 L280.163323,44.9789337 C280.163323,45.6174123 279.645734,46.1350015 279.007256,46.1350015 L277.937354,46.1350015 C277.298876,46.1350015 276.781287,45.6174123 276.781287,44.9789337 L276.781287,15.639227 C276.781287,15.0007484 277.298876,14.4831592 277.937354,14.4831592 L279.007256,14.4831592 C279.645734,14.4831592 280.163323,15.0007484 280.163323,15.639227 L280.163323,30.3665247 L280.163323,30.330622 Z" id="Shape"></path>
                    <path d="M283.530999,16.838378 L283.530999,15.6607686 C283.530999,15.02229 284.048588,14.5047009 284.687067,14.5047009 L286.324231,14.5047009 C286.96271,14.5047009 287.480299,13.9871117 287.480299,13.3486331 L287.480299,1.92438605 C287.480245,1.61400874 287.604997,1.3166461 287.826483,1.09921133 C288.04797,0.881776561 288.347585,0.762534879 288.657908,0.768318312 L289.835517,0.768318312 C290.142126,0.768318312 290.436176,0.890117957 290.652981,1.10692271 C290.869786,1.32372747 290.991585,1.61777783 290.991585,1.92438605 L290.991585,16.838378 C290.991585,17.4768566 290.473996,17.9944457 289.835517,17.9944457 L284.708608,17.9944457 C284.398285,18.0002291 284.09867,17.8809875 283.877184,17.6635527 C283.655697,17.4461179 283.530945,17.1487553 283.530999,16.838378 L283.530999,16.838378 Z M299.378462,23.6096319 L284.687067,23.6096319 C284.048588,23.6096319 283.530999,23.0920427 283.530999,22.4535641 L283.530999,21.2759548 C283.527159,20.9668659 283.647261,20.6691126 283.864484,20.4491919 C284.081706,20.2292711 284.377954,20.1055021 284.687067,20.1055259 L299.378462,20.1055259 C299.68507,20.1055259 299.97912,20.2273256 300.195925,20.4441303 C300.41273,20.6609351 300.534529,20.9549854 300.534529,21.2615937 L300.534529,22.4392031 C300.538369,22.7482919 300.418267,23.0460452 300.201045,23.2659659 C299.983822,23.4858867 299.687574,23.6096557 299.378462,23.6096319 L299.378462,23.6096319 Z M300.864835,44.2536987 L300.864835,45.1943501 C300.864413,45.522591 300.725334,45.8353765 300.481899,46.0555621 C300.238464,46.2757477 299.913334,46.382837 299.586698,46.3504178 C292.728993,45.6790918 287.495471,39.9209752 287.480299,33.0305069 L287.480299,26.8983215 C287.480245,26.5879442 287.604997,26.2905815 287.826483,26.0731468 C288.04797,25.855712 288.347585,25.7364703 288.657908,25.7422537 L289.835517,25.7422537 C290.142126,25.7422537 290.436176,25.8640534 290.652981,26.0808581 C290.869786,26.2976629 290.991585,26.5917133 290.991585,26.8983215 L290.991585,33.0305069 C291.148518,38.0920922 294.896444,42.3202111 299.902641,43.0832699 C300.473341,43.1737163 300.886494,43.6762825 300.864835,44.2536987 L300.864835,44.2536987 Z M293.095485,16.838378 L293.095485,1.92438605 C293.095485,1.28590747 293.613074,0.768318312 294.251553,0.768318312 L295.421981,0.768318312 C296.052032,0.780060411 296.556617,1.29422626 296.556508,1.92438605 L296.556508,13.3486331 C296.556508,13.9871117 297.074097,14.5047009 297.712575,14.5047009 L299.34974,14.5047009 C299.988218,14.5047009 300.505807,15.02229 300.505807,15.6607686 L300.505807,16.8311974 C300.505807,17.469676 299.988218,17.9872652 299.34974,17.9872652 L294.22283,17.9872652 C293.598376,17.9717569 293.099172,17.4630144 293.095485,16.838378 L293.095485,16.838378 Z M300.864835,38.3441102 L300.864835,40.067441 C300.857828,40.3263066 300.739357,40.5695315 300.539855,40.7346363 C300.340354,40.8997411 300.079264,40.9706348 299.823655,40.9291064 C296.011852,40.1900549 293.218975,36.9113308 293.095485,33.0305069 L293.095485,26.8983215 C293.095485,26.5917133 293.217284,26.2976629 293.434089,26.0808581 C293.650894,25.8640534 293.944944,25.7422537 294.251553,25.7422537 L295.421981,25.7422537 C296.052032,25.7539958 296.556617,26.2681617 296.556508,26.8983215 L296.556508,33.0305069 C296.561898,35.0321336 297.94515,36.7664042 299.895461,37.2167646 C300.443503,37.3178041 300.847051,37.7871157 300.864835,38.3441102 Z" id="Shape"></path>
                    <path d="M324.625258,16.1418651 L324.625258,17.9513624 C324.620934,18.1432788 324.522192,18.3207012 324.361371,18.4255217 C324.200551,18.5303422 323.998367,18.549059 323.821037,18.4755422 C318.480489,16.3677448 312.389778,18.073034 308.92015,22.6475219 C305.450522,27.2220098 305.450522,33.5469423 308.92015,38.1214302 C312.389778,42.6959181 318.480489,44.4012074 323.821037,42.2934099 C324.00028,42.2163245 324.206233,42.2342505 324.369463,42.3411443 C324.532693,42.4480382 324.631449,42.6296567 324.632438,42.8247702 L324.632438,44.8066007 C324.635594,45.3054547 324.316462,45.749339 323.842578,45.905224 C322.349022,46.3779893 320.79208,46.6201265 319.225488,46.6232785 C312.89635,46.5802939 307.170264,42.8598969 304.559299,37.0942487 C301.948334,31.3286005 302.929418,24.5708722 307.072143,19.7857212 C311.214867,15.0005703 317.762509,13.062067 323.842578,14.8206448 C324.377042,15.0277399 324.700423,15.5736309 324.625258,16.1418651 L324.625258,16.1418651 Z M324.625258,21.8863011 L324.625258,24.3348669 C324.621783,24.5608706 324.487686,24.7643938 324.281392,24.8567645 C324.075097,24.9491351 323.83397,24.9136228 323.663065,24.7656996 C321.396276,22.9720973 318.270319,22.7262125 315.750977,24.1433423 C313.231635,25.5604722 311.818497,28.3595979 312.174193,31.2281901 C312.490687,33.7821702 314.161505,35.9662498 316.543699,36.9399716 C318.925893,37.9136934 321.648207,37.5253066 323.663065,35.9242665 C323.83419,35.780859 324.072302,35.748067 324.275821,35.8398799 C324.479339,35.9316927 324.612338,36.1319032 324.618077,36.3550992 L324.618077,38.7749429 C324.621622,39.1965912 324.392475,39.5858649 324.022092,39.7873997 C322.515153,40.5753797 320.839844,40.9868158 319.139321,40.9865507 C314.710653,41.0039645 310.732866,38.2803218 309.147578,34.1450748 C307.562291,30.0098278 308.700009,25.3251057 312.005395,22.3775938 C315.310781,19.4300818 320.094718,18.8342865 324.022092,20.8810248 C324.405791,21.0840999 324.639965,21.4883281 324.625258,21.9222038 L324.625258,21.8863011 Z M329.938861,15.6033242 L329.938861,45.0148365 C329.938861,45.653315 329.421272,46.1709042 328.782793,46.1709042 L327.705712,46.1709042 C327.037921,46.1709042 326.564005,45.98421 326.564005,45.2661555 L326.564005,45.2661555 L326.564005,15.4668939 L326.564005,15.4668939 C326.587349,14.9093405 327.054558,14.4741318 327.612365,14.4903398 L328.789974,14.4903398 C329.422856,14.4942587 329.934942,15.0063444 329.938861,15.639227 L329.938861,15.6033242 Z M335.446339,30.330622 L335.446339,44.9789337 C335.446339,45.6174123 334.92875,46.1350015 334.290271,46.1350015 L333.22037,46.1350015 C332.581892,46.1350015 332.064302,45.6174123 332.064302,44.9789337 L332.064302,15.639227 C332.064302,15.0007484 332.581892,14.4831592 333.22037,14.4831592 L334.290271,14.4831592 C334.92875,14.4831592 335.446339,15.0007484 335.446339,15.639227 L335.446339,30.3665247 L335.446339,30.330622 Z" id="Shape"></path>
                    <path d="M5.74443598,59.3687459 C4.73522379,59.3693441 3.74398385,59.1017093 2.87221799,58.593247 C1.09140021,57.5875679 -0.00707796326,55.6981854 -5.75811371e-14,53.6530321 L-5.75811371e-14,41.2809531 C0.000722752175,38.7646594 1.34499278,36.4402495 3.52564758,35.1846704 L11.6324829,30.5244967 L3.97802192,26.1156421 C1.51867299,24.6906198 0.00329282871,22.0646903 -5.60680381e-14,19.2223189 L-5.60680381e-14,6.41222666 C-0.0103106316,4.57281953 0.972412107,2.87089747 2.5706351,1.96028878 C4.1585213,1.03139377 6.12401911,1.03139377 7.7119053,1.96028878 L34.2081163,17.2333079 C35.9596424,18.2419517 37.0391153,20.1092504 37.0391153,22.1304396 C37.0391153,24.1516289 35.9596424,26.0189276 34.2081163,27.0275713 L28.1692779,30.5101356 L33.9137139,33.8131863 C35.7257009,34.858215 36.8421416,36.7909097 36.8421416,38.882651 C36.8421416,40.9743924 35.7257009,42.9070871 33.9137139,43.9521158 L8.58075125,58.6004276 C7.71881756,59.100276 6.74081221,59.365204 5.74443598,59.3687459 Z M5.1412702,3.91339701 C3.76564666,3.92127479 2.65354022,5.03658615 2.6496211,6.41222666 L2.6496211,19.2223189 C2.65329673,21.1180863 3.66537408,22.8687066 5.30642274,23.8178677 L16.9317251,30.5173161 L4.84686786,37.4968059 C3.50828803,38.2866607 2.68852148,39.7267172 2.69270437,41.2809531 L2.69270437,53.6530321 C2.69102658,54.7481953 3.27495905,55.7606958 4.22372281,56.3077174 C5.17248658,56.854739 6.34130251,56.8528075 7.28825315,56.3026532 L32.5853131,41.6471609 C33.5776048,41.0735901 34.1887559,40.0144253 34.1887559,38.86829 C34.1887559,37.7221546 33.5776048,36.6629898 32.5853131,36.0894191 L22.8772163,30.5244967 L32.886896,24.7800607 C33.8187243,24.2428723 34.3929049,23.2491043 34.3929049,22.1735229 C34.3929049,21.0979415 33.8187243,20.1041735 32.886896,19.5669851 L6.39068503,4.25088263 C6.01120884,4.03030292 5.5801977,3.91388037 5.1412702,3.91339701 Z M5.64390835,53.8110041 L5.64390835,40.4839126 L19.9044707,32.2478275 L31.450787,38.8898316 L5.64390835,53.8110041 Z M8.29352945,42.0133687 L8.29352945,49.1939136 L26.1443643,38.8970121 L19.8972901,35.3067396 L8.29352945,42.0133687 Z M19.9044707,28.8011659 L5.62236672,20.5650808 L5.62236672,7.24516988 L31.4723286,22.1376202 L19.9044707,28.8011659 Z M8.27198781,19.0356247 L19.9044707,25.7422537 L26.1515448,22.1519813 L8.27198781,11.8263576 L8.27198781,19.0356247 Z" id="Shape"></path>
                </g>
            </g>
        </g>
    </g>
</svg>