<?xml version="1.0" encoding="UTF-8"?>
<svg width="157px" height="28px" viewBox="0 0 157 28" version="1.1" xmlns="http://www.w3.org/2000/svg" xmlns:xlink="http://www.w3.org/1999/xlink">
    <!-- Generator: Sketch 54.1 (76490) - https://sketchapp.com -->
    <title>wingudata-logo-horizontal-full copy</title>
    <desc>Created with Sketch.</desc>
    <g id="Page-1" stroke="none" stroke-width="1" fill="none" fill-rule="evenodd">
        <g id="Dashboard" transform="translate(-30.000000, -21.000000)" fill="#FFFFFF" fill-rule="nonzero">
            <g id="wingudata-logo-horizontal-full-copy" transform="translate(30.000000, 21.000000)">
                <rect id="Rectangle" x="46.1287783" y="7.15756723" width="3.4648523" height="13.9565859"></rect>
                <path d="M60.1155225,6.88614263 C59.2919945,6.86999763 58.4757498,7.04310571 57.7296668,7.3921317 C57.1048274,7.67688913 56.5568824,8.10651477 56.1312775,8.64537615 L56.1312775,8.64537615 L56.1312775,8.64537615 L56.1312775,8.64537615 C56.1011192,8.58841049 55.7626762,7.93833182 55.3036,7.15756723 L52.7736547,7.15756723 L52.7736547,21.1108022 L56.2251033,21.1108022 L56.2251033,12.8608348 C56.185183,12.0941417 56.4914478,11.3500044 57.0594826,10.8335276 C57.621472,10.342501 58.3474525,10.0805739 59.0934916,10.0996759 C59.8054034,10.0731188 60.4978407,10.3353508 61.0135694,10.8268257 C61.5345842,11.3714667 61.805331,12.1084323 61.7608247,12.8608348 L61.7608247,21.1108022 L65.2256771,21.1108022 L65.2256771,11.9694898 C65.2256771,10.432534 64.7520802,9.20386298 63.8048866,8.28347668 C62.8144052,7.34156515 61.4846013,6.84107533 60.1188735,6.8961954" id="Path"></path>
                <path d="M93.2963422,7.18772552 L93.2963422,15.4980096 C93.3340408,16.2594507 93.0277264,16.9975578 92.4619628,17.5085622 C91.8900876,18.0000601 91.1548348,18.2594907 90.4011464,18.235712 C89.6866293,18.270702 88.9882457,18.0157558 88.4643141,17.5286677 C87.9409811,16.9868376 87.6697688,16.2498213 87.7170587,15.4980096 L87.7170587,7.18772552 L84.2656101,7.18772552 L84.2656101,16.3893546 C84.2656101,17.9263103 84.736973,19.1549813 85.6796988,20.0753676 C86.6708586,21.0155019 88.0008227,21.5136339 89.3657119,21.4559471 C90.2001261,21.4731843 91.0275061,21.300145 91.7850768,20.949958 C92.4279978,20.6547802 92.9884314,20.2059731 93.4169753,19.6430988 C93.4169753,19.6430988 93.768822,20.3501432 94.2211964,21.1175041 L96.741089,21.1175041 L96.741089,7.18772552 L93.2963422,7.18772552 Z" id="Path"></path>
                <path d="M47.8545026,0.931556035 C47.3216078,0.911769038 46.8044867,1.11449024 46.4270103,1.49115984 C46.0544809,1.87359153 45.8546954,2.39182309 45.8741083,2.92535402 C45.8489824,3.45789309 46.0495497,3.97634517 46.4265306,4.35332605 C46.8035115,4.73030693 47.3219636,4.93087422 47.8545026,4.90574833 C48.3886283,4.92658307 48.9080304,4.72802378 49.2920477,4.35619729 C49.6687173,3.97872091 49.8714385,3.46159976 49.8516516,2.92870494 C49.8727568,2.39162671 49.6701168,1.86985902 49.2920477,1.48780892 C48.9094007,1.11561567 48.3913185,0.915887752 47.8578536,0.934906956" id="Path"></path>
                <path d="M74.5278337,18.3295378 C72.0716086,18.3295378 71.0227704,16.2821251 71.0227704,14.1576412 C71.0227704,12.0331573 72.0716086,9.98574455 74.5278337,9.98574455 C76.9840588,9.98574455 78.0328971,12.0331573 78.0328971,14.1576412 C78.0328971,16.2821251 76.9840588,18.3295378 74.5278337,18.3295378 M78.1166701,8.71239457 L78.1166701,8.71239457 C77.2219742,7.55297591 75.7140597,6.88279171 73.8442458,6.88279171 C72.1094686,6.83841079 70.4490632,7.58719689 69.3339062,8.91680075 C68.1610838,10.2750407 67.5746727,12.0141687 67.5746727,14.1341847 C67.5746727,16.2542007 68.1610838,17.9966797 69.3339062,19.3616215 C70.4413606,20.7040288 72.1045304,21.462711 73.8442458,21.419087 C76.3038218,21.419087 77.654243,20.2563174 78.0496517,19.6833099 L78.0496517,20.6081641 C78.0617839,21.2522234 77.8322477,21.8774704 77.4062748,22.3606958 C76.9819996,22.8473715 76.4345055,23.2108243 75.8212892,23.412885 C75.1508297,23.6383942 74.4477266,23.7516154 73.7403673,23.747977 C72.901576,23.7450847 72.065603,23.6507007 71.2472821,23.4664997 L71.0428759,23.4195868 L69.722613,26.1304819 C70.1710378,26.2880776 70.6287473,26.4178925 71.0931397,26.5191887 C72.038639,26.7254365 73.0038545,26.8276886 73.9715808,26.8241225 C74.9448228,26.830977 75.9140662,26.6989613 76.850022,26.4320648 C77.7020574,26.1911736 78.5082696,25.8107139 79.2358777,25.3061553 C79.9363731,24.8120603 80.5038723,24.152472 80.8878818,23.3860776 C81.301775,22.5539492 81.5097795,21.6345924 81.4943985,20.7053408 L81.4943985,7.15756723 L78.9711549,7.15756723 C78.4350076,8.10252695 78.1099683,8.71574549 78.1099683,8.71574549" id="Shape"></path>
                <polygon id="Path" points="37.959233 17.6057389 34.8428764 7.20112921 32.5072845 7.20112921 29.3741734 17.6057389 26.5359433 7.20112921 22.9772652 7.20112921 27.0787925 21.1108022 31.3646205 21.1108022 33.673405 13.2931036 35.9855405 21.1108022 40.2680175 21.1108022 44.3393865 7.20112921 40.7807084 7.20112921"></polygon>
                <path d="M108.982003,7.53287038 L108.982003,8.37730247 C108.979985,8.46686342 108.933906,8.54966055 108.858856,8.59857678 C108.783807,8.64749302 108.689454,8.65622755 108.6067,8.6219197 C106.114445,7.63828089 103.272113,8.43408255 101.652953,10.5688436 C100.033793,12.7036046 100.033793,15.6552397 101.652953,17.7900008 C103.272113,19.9247618 106.114445,20.7205634 108.6067,19.7369246 C108.689996,19.7024133 108.784992,19.7115169 108.860218,19.7612195 C108.935443,19.8109221 108.981078,19.8947353 108.982003,19.9848928 L108.982003,20.909747 C108.984548,21.1428859 108.835212,21.3505996 108.613402,21.4224379 C107.916469,21.6433176 107.189856,21.7563211 106.45876,21.75753 C103.490086,21.7625999 100.792475,20.0319033 99.5596673,17.3313041 C98.3268597,14.6307049 98.7864467,11.4587661 100.735053,9.21912672 C102.683659,6.97948731 105.761548,6.08561166 108.6067,6.93305553 C108.853459,7.02461447 109.00757,7.27091781 108.982003,7.53287038 Z M103.158103,14.5698045 C103.3058,15.7616618 104.085515,16.780899 105.197205,17.2353025 C106.308896,17.689706 107.579309,17.5084588 108.519576,16.7613068 C108.598595,16.6914197 108.711254,16.6743721 108.807412,16.7177516 C108.90357,16.7611311 108.965348,16.8568722 108.965249,16.962362 L108.965249,18.0949733 C108.966903,18.2917425 108.859968,18.4734036 108.687122,18.5674532 C107.983837,18.935052 107.202057,19.1270479 106.408496,19.127057 C104.341784,19.1351834 102.485483,17.8641502 101.745682,15.9343682 C101.005882,14.0045863 101.536817,11.8183827 103.07933,10.4428771 C104.621844,9.06737152 106.854348,8.78933372 108.687122,9.74447824 C108.860507,9.83796875 108.967654,10.0199885 108.965249,10.2169581 L108.965249,11.3596222 C108.963627,11.4650905 108.901049,11.560068 108.804778,11.6031743 C108.708507,11.6462806 108.595981,11.6297082 108.516225,11.5606774 C107.460746,10.7270031 106.006895,10.6115355 104.833054,11.2681529 C103.659213,11.9247704 102.99674,13.2240563 103.154752,14.5597517 L103.158103,14.5698045 Z M111.461685,0.874590378 L111.461685,21.0069237 C111.461696,21.1511763 111.403937,21.2894253 111.301307,21.3907957 C111.198678,21.4921661 111.059726,21.5482139 110.915485,21.546422 L110.412847,21.546422 C110.272304,21.5636619 110.131384,21.5174139 110.028387,21.4202475 C109.925391,21.3230811 109.871019,21.185092 109.88005,21.0437838 L109.88005,21.0437838 L109.88005,0.797519195 L109.88005,0.797519195 C109.883543,0.670704588 109.937533,0.550535426 110.030025,0.463706031 C110.122517,0.376876636 110.245853,0.330576999 110.372636,0.335092099 L110.915485,0.335092099 C111.059726,0.333300141 111.198678,0.38934791 111.301307,0.490718338 C111.403937,0.592088767 111.461696,0.730337764 111.461685,0.874590378 L111.461685,0.874590378 Z M114.031841,14.1676939 L114.031841,21.0035728 C114.031841,21.3015294 113.7903,21.543071 113.492343,21.543071 L112.993056,21.543071 C112.695099,21.543071 112.453557,21.3015294 112.453557,21.0035728 L112.453557,0.874590378 C112.453557,0.576633706 112.695099,0.335092099 112.993056,0.335092099 L113.492343,0.335092099 C113.7903,0.335092099 114.031841,0.576633706 114.031841,0.874590378 L114.031841,14.1710449 L114.031841,14.1676939 Z" id="Shape"></path>
                <path d="M125.693046,7.53287038 L125.693046,8.37730247 C125.691028,8.46686342 125.644949,8.54966055 125.569899,8.59857678 C125.49485,8.64749302 125.400497,8.65622755 125.317743,8.6219197 C122.825488,7.63828089 119.983156,8.43408255 118.363996,10.5688436 C116.744836,12.7036046 116.744836,15.6552397 118.363996,17.7900008 C119.983156,19.9247618 122.825488,20.7205634 125.317743,19.7369246 C125.40139,19.7009515 125.497502,19.7093169 125.573675,19.7592007 C125.649849,19.8090845 125.695936,19.8938398 125.696397,19.9848928 L125.696397,20.909747 C125.698942,21.1428859 125.549606,21.3505996 125.327796,21.4224379 C124.630779,21.6429596 123.904222,21.7559545 123.173154,21.75753 C120.219124,21.7388057 117.545863,20.0033422 116.326436,17.3126845 C115.107008,14.6220267 115.564224,11.4678061 117.497451,9.23413738 C119.430678,7.00046871 122.486682,6.09548324 125.324445,6.91630092 C125.574361,7.01274644 125.726406,7.26707509 125.693046,7.53287038 L125.693046,7.53287038 Z M125.693046,10.2136072 L125.693046,11.3562712 C125.691425,11.4617396 125.628846,11.5567171 125.532575,11.5998234 C125.436305,11.6429297 125.323779,11.6263573 125.244023,11.5573265 C124.186188,10.7203121 122.727408,10.6055658 121.551715,11.2668931 C120.376023,11.9282203 119.716558,13.234479 119.882549,14.5731554 C120.030246,15.7650128 120.809962,16.7842499 121.921652,17.2386534 C123.033343,17.6930569 124.303756,17.5118097 125.244023,16.7646577 C125.323881,16.6977342 125.435,16.6824313 125.529976,16.7252773 C125.624951,16.7681233 125.687017,16.8615548 125.689695,16.965713 L125.689695,18.0949733 C125.6921,18.2919429 125.584954,18.4739627 125.411569,18.5674532 C124.708331,18.9351772 123.92652,19.1271807 123.132943,19.127057 C121.066231,19.1351834 119.20993,17.8641502 118.470129,15.9343682 C117.730328,14.0045863 118.261263,11.8183827 119.803777,10.4428771 C121.346291,9.06737152 123.578794,8.78933372 125.411569,9.74447824 C125.589331,9.84016796 125.697204,10.0286209 125.689695,10.2303618 L125.693046,10.2136072 Z M128.172728,7.28155131 L128.172728,21.0069237 C128.172728,21.3048804 127.931186,21.546422 127.63323,21.546422 L127.130591,21.546422 C126.818956,21.546422 126.597795,21.459298 126.597795,21.1242059 L126.597795,21.1242059 L126.597795,7.21788381 L126.597795,7.21788381 C126.602161,7.09254742 126.656178,6.97408885 126.747944,6.8886073 C126.839711,6.80312576 126.961699,6.7576353 127.087029,6.76215856 L127.63658,6.76215856 C127.930616,6.76580592 128.167573,7.00425307 128.169377,7.29830591 L128.172728,7.28155131 Z M130.742884,14.1542903 L130.742884,20.9901691 C130.742884,21.2881257 130.501343,21.5296674 130.203386,21.5296674 L129.704099,21.5296674 C129.406142,21.5296674 129.1646,21.2881257 129.1646,20.9901691 L129.1646,7.29830591 C129.1646,7.00034924 129.406142,6.75880763 129.704099,6.75880763 L130.203386,6.75880763 C130.501343,6.75880763 130.742884,7.00034924 130.742884,7.29830591 L130.742884,14.1710449 L130.742884,14.1542903 Z" id="Shape"></path>
                <path d="M132.314466,7.85790972 L132.314466,7.30835868 C132.314466,7.010402 132.556008,6.7688604 132.853964,6.7688604 L133.617974,6.7688604 C133.915931,6.7688604 134.157473,6.52731879 134.157473,6.22936212 L134.157473,0.898046825 C134.157448,0.753204078 134.215665,0.614434845 134.319026,0.512965287 C134.422386,0.411495729 134.562206,0.35584961 134.707024,0.358548546 L135.256575,0.358548546 C135.399659,0.358548546 135.536882,0.41538838 135.638058,0.516563933 C135.739233,0.617739487 135.796073,0.754962985 135.796073,0.898046825 L135.796073,7.85790972 C135.796073,8.15586639 135.554531,8.397408 135.256575,8.397408 L132.864017,8.397408 C132.7192,8.40010693 132.579379,8.34446082 132.476019,8.24299126 C132.372659,8.1415217 132.314441,8.00275247 132.314466,7.85790972 L132.314466,7.85790972 Z M139.709949,11.0178282 L132.853964,11.0178282 C132.556008,11.0178282 132.314466,10.7762866 132.314466,10.4783299 L132.314466,9.92877889 C132.312674,9.78453741 132.368722,9.6455859 132.470092,9.54295621 C132.571463,9.44032652 132.709712,9.38256764 132.853964,9.38257877 L139.709949,9.38257877 C139.853033,9.38257877 139.990256,9.4394186 140.091432,9.54059416 C140.192607,9.64176971 140.249447,9.77899321 140.249447,9.92207705 L140.249447,10.4716281 C140.251239,10.6158696 140.195191,10.7548211 140.093821,10.8574508 C139.99245,10.9600805 139.854201,11.0178393 139.709949,11.0178282 L139.709949,11.0178282 Z M140.403589,20.6517261 L140.403589,21.0906967 C140.403393,21.2438758 140.338489,21.3898424 140.224886,21.4925956 C140.111283,21.5953489 139.959556,21.6453239 139.807126,21.630195 C136.606864,21.3169095 134.164553,18.6297884 134.157473,15.4142365 L134.157473,12.55255 C134.157448,12.4077073 134.215665,12.268938 134.319026,12.1674685 C134.422386,12.0659989 134.562206,12.0103528 134.707024,12.0130517 L135.256575,12.0130517 C135.399659,12.0130517 135.536882,12.0698916 135.638058,12.1710671 C135.739233,12.2722427 135.796073,12.4094662 135.796073,12.55255 L135.796073,15.4142365 C135.869309,17.7763097 137.61834,19.7494318 139.954566,20.1055259 C140.220893,20.1477343 140.413697,20.3822651 140.403589,20.6517261 L140.403589,20.6517261 Z M136.777893,7.85790972 L136.777893,0.898046825 C136.777893,0.600090153 137.019435,0.358548546 137.317391,0.358548546 L137.863591,0.358548546 C138.157615,0.364028192 138.393088,0.603972256 138.393037,0.898046825 L138.393037,6.22936212 C138.393037,6.52731879 138.634578,6.7688604 138.932535,6.7688604 L139.696545,6.7688604 C139.994502,6.7688604 140.236043,7.010402 140.236043,7.30835868 L140.236043,7.8545588 C140.236043,8.15251547 139.994502,8.39405708 139.696545,8.39405708 L137.303988,8.39405708 C137.012575,8.38681987 136.779614,8.14940672 136.777893,7.85790972 L136.777893,7.85790972 Z M140.403589,17.8939181 L140.403589,18.6981391 C140.40032,18.8189431 140.345033,18.932448 140.251933,19.0094969 C140.158832,19.0865459 140.03699,19.1196296 139.917706,19.1002496 C138.138864,18.755359 136.835522,17.2252877 136.777893,15.4142365 L136.777893,12.55255 C136.777893,12.4094662 136.834733,12.2722427 136.935908,12.1710671 C137.037084,12.0698916 137.174307,12.0130517 137.317391,12.0130517 L137.863591,12.0130517 C138.157615,12.0185314 138.393088,12.2584755 138.393037,12.55255 L138.393037,15.4142365 C138.395552,16.348329 139.04107,17.1576553 139.951215,17.3678235 C140.206968,17.4149753 140.395291,17.6339873 140.403589,17.8939181 Z" id="Shape"></path>
                <path d="M151.491787,7.53287038 L151.491787,8.37730247 C151.489769,8.46686342 151.443689,8.54966055 151.36864,8.59857678 C151.29359,8.64749302 151.199238,8.65622755 151.116484,8.6219197 C148.624228,7.63828089 145.781897,8.43408255 144.162737,10.5688436 C142.543577,12.7036046 142.543577,15.6552397 144.162737,17.7900008 C145.781897,19.9247618 148.624228,20.7205634 151.116484,19.7369246 C151.200131,19.7009515 151.296242,19.7093169 151.372416,19.7592007 C151.44859,19.8090845 151.494676,19.8938398 151.495138,19.9848928 L151.495138,20.909747 C151.496611,21.1425455 151.347682,21.3496915 151.126537,21.4224379 C150.429543,21.6430617 149.70297,21.756059 148.971894,21.75753 C146.018297,21.7374705 143.346123,20.0012852 142.127673,17.3106494 C140.909223,14.6200136 141.367062,11.466407 143.300333,9.23333657 C145.233605,7.00026612 148.289171,6.09563125 151.126537,6.91630092 C151.375953,7.0129453 151.526864,7.26769444 151.491787,7.53287038 L151.491787,7.53287038 Z M151.491787,10.2136072 L151.491787,11.3562712 C151.490165,11.4617396 151.427587,11.5567171 151.331316,11.5998234 C151.235045,11.6429297 151.122519,11.6263573 151.042764,11.5573265 C149.984929,10.7203121 148.526149,10.6055658 147.350456,11.2668931 C146.174763,11.9282203 145.515299,13.234479 145.68129,14.5731554 C145.828987,15.7650128 146.608702,16.7842499 147.720393,17.2386534 C148.832083,17.6930569 150.102496,17.5118097 151.042764,16.7646577 C151.122622,16.6977342 151.233741,16.6824313 151.328716,16.7252773 C151.423692,16.7681233 151.485758,16.8615548 151.488436,16.965713 L151.488436,18.0949733 C151.49009,18.2917425 151.383155,18.4734036 151.21031,18.5674532 C150.507071,18.9351772 149.725261,19.1271807 148.931683,19.127057 C146.864972,19.1351834 145.008671,17.8641502 144.26887,15.9343682 C143.529069,14.0045863 144.060004,11.8183827 145.602518,10.4428771 C147.145031,9.06737152 149.377535,8.78933372 151.21031,9.74447824 C151.389369,9.83924663 151.49865,10.0278865 151.491787,10.2303618 L151.491787,10.2136072 Z M153.971469,7.28155131 L153.971469,21.0069237 C153.971469,21.3048804 153.729927,21.546422 153.43197,21.546422 L152.929332,21.546422 C152.617696,21.546422 152.396536,21.459298 152.396536,21.1242059 L152.396536,21.1242059 L152.396536,7.21788381 L152.396536,7.21788381 C152.407429,6.95769223 152.62546,6.75459484 152.88577,6.76215856 L153.435321,6.76215856 C153.730666,6.76398737 153.96964,7.00296074 153.971469,7.29830591 L153.971469,7.28155131 Z M156.541625,14.1542903 L156.541625,20.9901691 C156.541625,21.2881257 156.300083,21.5296674 156.002127,21.5296674 L155.502839,21.5296674 C155.204883,21.5296674 154.963341,21.2881257 154.963341,20.9901691 L154.963341,7.29830591 C154.963341,7.00034924 155.204883,6.75880763 155.502839,6.75880763 L156.002127,6.75880763 C156.300083,6.75880763 156.541625,7.00034924 156.541625,7.29830591 L156.541625,14.1710449 L156.541625,14.1542903 Z" id="Shape"></path>
                <path d="M2.68073679,27.7054147 C2.2097711,27.7056939 1.74719247,27.5807977 1.3403684,27.3435153 C0.509320097,26.8741984 -0.00330304952,25.9924865 -5.8115947e-16,25.0380816 L-5.8115947e-16,19.2644448 C0.000337284348,18.0901744 0.627663298,17.0054498 1.64530221,16.4195128 L5.428492,14.2447651 L1.85641023,12.1872996 C0.708714061,11.5222892 0.0015366534,10.2968555 1.249543e-16,8.97041549 L1.249543e-16,2.99237244 C-0.00481162809,2.13398245 0.453792317,1.33975215 1.19962971,0.91480143 C1.94064327,0.48131709 2.85787559,0.48131709 3.59888914,0.91480143 L15.9637876,8.04221037 C16.7811665,8.51291078 17.2849205,9.38431684 17.2849205,10.3275385 C17.2849205,11.2707601 16.7811665,12.1421662 15.9637876,12.6128666 L13.145663,14.2380633 L15.8263998,15.7794869 C16.6719938,16.267167 17.1929994,17.1690912 17.1929994,18.1452372 C17.1929994,19.1213831 16.6719938,20.0233073 15.8263998,20.5109874 L4.00435058,27.3468662 C3.60211486,27.5801288 3.14571236,27.7037619 2.68073679,27.7054147 Z M2.39925943,1.82625194 C1.75730177,1.82992823 1.23831877,2.35040687 1.23648984,2.99237244 L1.23648984,8.97041549 C1.23820514,9.85510693 1.71050791,10.6720631 2.47633061,11.1150049 L7.90147169,14.2414142 L2.26187167,17.4985094 C1.63720108,17.8671083 1.25464336,18.5391347 1.25659537,19.2644448 L1.25659537,25.0380816 C1.25581241,25.5491578 1.52831422,26.021658 1.97107065,26.2769348 C2.41382707,26.5322115 2.95927451,26.5313102 3.4011848,26.2745715 L15.2064794,19.4353417 C15.6695489,19.1676754 15.9547528,18.6733985 15.9547528,18.1385353 C15.9547528,17.6036722 15.6695489,17.1093953 15.2064794,16.8417289 L10.6760343,14.2447651 L15.3472181,11.5640283 C15.7820713,11.3133404 16.0500223,10.849582 16.0500223,10.347644 C16.0500223,9.84570602 15.7820713,9.38194763 15.3472181,9.13125969 L2.98231968,1.98374523 C2.80523079,1.88080803 2.60409226,1.82647751 2.39925943,1.82625194 Z M2.6338239,25.1118019 L2.6338239,18.8924925 L9.28875298,15.0489862 L14.6770339,18.1485881 L2.6338239,25.1118019 Z M3.87031374,19.6062387 L3.87031374,22.9571597 L12.2007033,18.151939 L9.28540206,16.4764785 L3.87031374,19.6062387 Z M9.28875298,13.4405441 L2.62377113,9.59703771 L2.62377113,3.38107928 L14.6870867,10.3308894 L9.28875298,13.4405441 Z M3.86026098,8.88329154 L9.28875298,12.0130517 L12.2040542,10.3375913 L3.86026098,5.51896687 L3.86026098,8.88329154 Z" id="Shape"></path>
            </g>
        </g>
    </g>
</svg>