<?xml version="1.0" encoding="UTF-8"?>
<svg width="541px" height="719px" viewBox="0 0 541 719" version="1.1" xmlns="http://www.w3.org/2000/svg" xmlns:xlink="http://www.w3.org/1999/xlink">
    <!-- Generator: Sketch 54.1 (76490) - https://sketchapp.com -->
    <title>Group 61</title>
    <desc>Created with Sketch.</desc>
    <defs>
        <polygon id="path-1" points="0.338198825 0.136871871 180.119753 0.136871871 180.119753 179.749652 0.338198825 179.749652"></polygon>
        <path d="M106.49191,0.380095619 C165.077828,0.380095619 212.56878,47.830259 212.56878,106.36124 C212.56878,164.89222 165.077828,212.340511 106.49191,212.340511 C47.9041172,212.340511 0.411290662,164.89222 0.411290662,106.36124 L0.411290662,106.36124 L0.425502112,104.608671" id="path-3"></path>
    </defs>
    <g id="Page-1" stroke="none" stroke-width="1" fill="none" fill-rule="evenodd">
        <g id="Login-2">
            <g id="Group-61" transform="translate(-1.000000, 0.000000)">
                <g id="Group-60">
                    <g id="Group-8" transform="translate(180.209301, 539.248957)">
                        <mask id="mask-2" fill="white">
                            <use xlink:href="#path-1"></use>
                        </mask>
                        <g id="Clip-7"></g>
                        <path d="M180.119753,0.136871871 L0.338198825,0.136871871 L0.338198825,179.74984 C99.6287737,179.74984 180.119753,99.3343388 180.119753,0.136871871" id="Fill-6" fill="#FFBE00" mask="url(#mask-2)"></path>
                    </g>
                    <path d="M283.327929,539.385829 L180.547687,539.385829 L180.547687,642.06969 C237.311932,642.06969 283.327929,596.096844 283.327929,539.385829" id="Fill-9" fill="#F3CD48"></path>
                    <polygon id="Fill-11" fill="#2F1F7E" points="0.765945578 718.998609 180.5475 718.998609 180.5475 539.385642 0.765945578 539.385642"></polygon>
                    <polygon id="Fill-15" fill="#FFFFFF" transform="translate(270.438277, 449.579158) scale(-1, 1) translate(-270.438277, -449.579158) " points="180.5475 539.385642 360.329054 539.385642 360.329054 359.772674 180.5475 359.772674"></polygon>
                    <polygon id="Fill-16" fill="#060639" transform="translate(270.438652, 449.579907) scale(-1, 1) translate(-270.438652, -449.579907) " points="180.547875 359.773423 180.547875 539.38639 360.329429 539.38639"></polygon>
                    <polygon id="Fill-17" fill="#7444BE" points="0.765945578 539.385642 180.5475 539.385642 180.5475 359.772674 0.765945578 359.772674"></polygon>
                    <path d="M90.6582221,539.380399 L0.774004422,539.380399 L0.774004422,449.580468 C0.774004422,474.389665 10.8363139,496.820924 27.1058071,513.073288 C43.3734262,529.325653 65.8257391,539.380399 90.6582221,539.380399" id="Fill-18" fill="#060639"></path>
                    <polygon id="Fill-19" fill="#FFFFFF" transform="translate(270.438277, 269.968062) scale(-1, 1) translate(-270.438277, -269.968062) " points="180.5475 359.774546 360.329054 359.774546 360.329054 180.161579 180.5475 180.161579"></polygon>
                    <polygon id="Fill-20" fill="#F3CD48" transform="translate(270.438277, 269.967313) scale(-1, 1) translate(-270.438277, -269.967313) " points="360.329054 180.16083 180.5475 180.16083 180.5475 359.773797"></polygon>
                    <polygon id="Fill-21" fill="#7444BE" points="0.765945578 359.772674 180.5475 359.772674 180.5475 180.159706 0.765945578 180.159706"></polygon>
                    <polygon id="Fill-22" fill="#060639" points="0.766882653 359.773423 180.548437 359.773423 180.548437 180.160455"></polygon>
                    <g id="Group-25" transform="translate(9.661682, 181.622045)">
                        <mask id="mask-4" fill="white">
                            <use xlink:href="#path-3"></use>
                        </mask>
                        <g id="Clip-24"></g>
                    </g>
                    <path d="M180.547875,0.548236439 L180.547875,0.548236439 L180.547875,180.161204 L360.329429,180.161204 C360.329429,80.9637371 279.83845,0.548236439 180.547875,0.548236439" id="Fill-30" fill="#7444BE"></path>
                    <polygon id="Fill-31" fill="#FFBE00" points="0.765945578 180.161579 180.5475 180.161579 180.5475 0.548610918 0.765945578 0.548610918"></polygon>
                    <polygon id="Fill-32" fill="#7444BE" transform="translate(200.856474, 359.568209) scale(-1, 1) translate(-200.856474, -359.568209) " points="221.712949 401.242042 221.712949 317.894375 180 359.568209"></polygon>
                    <path d="M90.6565354,449.580468 L0.766695238,449.580468 C0.766695238,499.178266 41.012185,539.386016 90.6565354,539.386016 L180.54825,539.386016 C180.54825,489.788219 140.30276,449.580468 90.6565354,449.580468" id="Fill-33" fill="#FFBE00"></path>
                    <polygon id="Fill-35" fill="#FFBE00" points="90.6565354 629.193062 90.6565354 718.998609 180.54825 718.998609 180.54825 629.193062 180.54825 539.385642 90.6565354 539.385642"></polygon>
                    <polygon id="Fill-36" fill="#2F1F7E" points="90.6565354 90.354533 90.6565354 180.160081 180.54825 180.160081 180.54825 90.354533 180.54825 0.548985396 90.6565354 0.548985396"></polygon>
                    <path d="M48,633.454621 L48,633.454621 C48,656.900716 67.0244932,675.909242 90.4944694,675.909242 C113.962571,675.909242 132.988939,656.900716 132.988939,633.454621 C132.988939,610.008526 113.962571,591 90.4944694,591 C67.0244932,591 48,610.008526 48,633.454621" id="Fill-37" fill="#FFFFFF"></path>
                    <polygon id="Fill-39" fill="#FFBE00" transform="translate(270.438465, 225.064352) scale(-1, 1) translate(-270.438465, -225.064352) " points="270.439402 269.967126 360.329242 180.161579 180.547687 180.161579"></polygon>
                    <path d="M48.277701,408.298339 C48.277701,414.136458 43.5398507,418.869866 37.6943779,418.869866 C31.847031,418.869866 27.1091806,414.136458 27.1091806,408.298339 C27.1091806,402.458348 31.847031,397.724941 37.6943779,397.724941 C43.5398507,397.724941 48.277701,402.458348 48.277701,408.298339" id="Fill-40" fill="#FFFFFF"></path>
                    <path d="M99.1944116,408.298339 C99.1944116,414.136458 94.4565612,418.869866 88.6110884,418.869866 C82.7637415,418.869866 78.0258912,414.136458 78.0258912,408.298339 C78.0258912,402.458348 82.7637415,397.724941 88.6110884,397.724941 C94.4565612,397.724941 99.1944116,402.458348 99.1944116,408.298339" id="Fill-41" fill="#FFFFFF"></path>
                    <path d="M150.11131,408.298339 C150.11131,414.136458 145.373459,418.869866 139.527986,418.869866 C133.682514,418.869866 128.944663,414.136458 128.944663,408.298339 C128.944663,402.458348 133.682514,397.724941 139.527986,397.724941 C145.373459,397.724941 150.11131,402.458348 150.11131,408.298339" id="Fill-42" fill="#FFFFFF"></path>
                    <path d="M208.686574,440.487851 C204.552199,436.357354 204.552199,429.663552 208.686574,425.534927 C212.819074,421.40443 219.519159,421.40443 223.653533,425.534927 C227.786033,429.663552 227.786033,436.357354 223.653533,440.487851 C219.519159,444.618348 212.819074,444.618348 208.686574,440.487851" id="Fill-43" fill="#060639" transform="translate(216.169350, 433.011389) rotate(-180.000000) translate(-216.169350, -433.011389) "></path>
                    <path d="M244.690675,404.518916 C240.556301,400.388418 240.556301,393.694616 244.690675,389.565991 C248.823175,385.435494 255.525135,385.435494 259.657635,389.565991 C263.790135,393.694616 263.790135,400.388418 259.657635,404.518916 C255.525135,408.647541 248.823175,408.647541 244.690675,404.518916" id="Fill-44" fill="#060639" transform="translate(252.173452, 397.041751) rotate(-180.000000) translate(-252.173452, -397.041751) "></path>
                    <path d="M280.693371,368.548389 C276.560871,364.417892 276.560871,357.72409 280.693371,353.595465 C284.825871,349.464967 291.527831,349.464967 295.660331,353.595465 C299.792831,357.72409 299.792831,364.417892 295.660331,368.548389 C291.527831,372.677014 284.825871,372.677014 280.693371,368.548389" id="Fill-45" fill="#060639" transform="translate(288.176851, 361.071225) rotate(-180.000000) translate(-288.176851, -361.071225) "></path>
                    <path d="M259.657072,332.142905 C263.789572,328.014281 263.789572,321.318606 259.657072,317.189981 C255.524572,313.059484 248.822613,313.059484 244.690113,317.189981 C240.555739,321.318606 240.555739,328.014281 244.690113,332.142905 C248.822613,336.27153 255.524572,336.27153 259.657072,332.142905" id="Fill-46" fill="#060639" transform="translate(252.172890, 324.665741) rotate(-180.000000) translate(-252.172890, -324.665741) "></path>
                    <path d="M223.652783,296.172379 C227.785283,292.043754 227.785283,285.348079 223.652783,281.219454 C219.518409,277.088957 212.818324,277.088957 208.685824,281.219454 C204.55145,285.348079 204.55145,292.043754 208.685824,296.172379 C212.818324,300.301003 219.518409,300.301003 223.652783,296.172379" id="Fill-47" fill="#060639" transform="translate(216.168601, 288.695214) scale(-1, 1) rotate(-180.000000) translate(-216.168601, -288.695214) "></path>
                    <path d="M142.856289,34.3282516 C142.856289,40.1682429 138.118438,44.9016504 132.272966,44.9016504 C126.427493,44.9016504 121.689643,40.1682429 121.689643,34.3282516 C121.689643,28.4882603 126.427493,23.7548527 132.272966,23.7548527 C138.118438,23.7548527 142.856289,28.4882603 142.856289,34.3282516" id="Fill-48" fill="#FFFFFF"></path>
                    <path d="M142.856289,88.9860016 C142.856289,94.8259929 138.118438,99.5594004 132.272966,99.5594004 C126.427493,99.5594004 121.689643,94.8259929 121.689643,88.9860016 C121.689643,83.1460103 126.427493,78.4126027 132.272966,78.4126027 C138.118438,78.4126027 142.856289,83.1460103 142.856289,88.9860016" id="Fill-49" fill="#FFFFFF"></path>
                    <path d="M142.856289,143.643752 C142.856289,149.483743 138.118438,154.21715 132.272966,154.21715 C126.427493,154.21715 121.689643,149.483743 121.689643,143.643752 C121.689643,137.80376 126.427493,133.070353 132.272966,133.070353 C138.118438,133.070353 142.856289,137.80376 142.856289,143.643752" id="Fill-50" fill="#FFFFFF"></path>
                    <path d="M180.547875,0.548236439 L180.547875,0.548236439 L180.547875,90.3537841 L180.547875,180.161204 L307.671446,53.154968 C275.138082,20.6521116 230.192225,0.548236439 180.547875,0.548236439" id="Fill-54" fill="#060639"></path>
                    <path d="M0.766882653,269.967126 L0.766882653,269.967126 C0.766882653,319.566796 41.0123724,359.772674 90.6567228,359.772674 L90.6585969,359.772674 C140.302947,359.772674 180.548437,319.566796 180.548437,269.967126 C180.548437,220.369329 140.302947,180.161579 90.6585969,180.161579 L90.6567228,180.161579 C41.0123724,180.161579 0.766882653,220.369329 0.766882653,269.967126" id="Fill-55" fill="#FFFFFF"></path>
                    <path d="M48.1622534,269.967126 L48.1622534,269.967126 C48.1622534,293.413221 67.1867466,312.421747 90.6567228,312.421747 L90.6585969,312.421747 C114.124825,312.421747 133.151192,293.413221 133.151192,269.967126 C133.151192,246.521031 114.124825,227.512505 90.6585969,227.512505 L90.6567228,227.512505 C67.1867466,227.512505 48.1622534,246.521031 48.1622534,269.967126" id="Fill-56" fill="#060639"></path>
                </g>
            </g>
        </g>
    </g>
</svg>