<?xml version="1.0" encoding="UTF-8"?>
<svg width="40px" height="40px" viewBox="0 0 40 40" version="1.1" xmlns="http://www.w3.org/2000/svg" xmlns:xlink="http://www.w3.org/1999/xlink">
    <!-- Generator: Sketch 54.1 (76490) - https://sketchapp.com -->
    <title>icon/invites sent</title>
    <desc>Created with Sketch.</desc>
    <defs>
        <filter x="-20.6%" y="-41.2%" width="141.2%" height="182.4%" filterUnits="objectBoundingBox" id="filter-1">
            <feMorphology radius="0.5" operator="erode" in="SourceAlpha" result="shadowSpreadOuter1"></feMorphology>
            <feOffset dx="1" dy="1" in="shadowSpreadOuter1" result="shadowOffsetOuter1"></feOffset>
            <feGaussianBlur stdDeviation="2" in="shadowOffsetOuter1" result="shadowBlurOuter1"></feGaussianBlur>
            <feColorMatrix values="0 0 0 0 0.443137255   0 0 0 0 0.501960784   0 0 0 0 0.588235294  0 0 0 0.28392701 0" type="matrix" in="shadowBlurOuter1" result="shadowMatrixOuter1"></feColorMatrix>
            <feMerge>
                <feMergeNode in="shadowMatrixOuter1"></feMergeNode>
                <feMergeNode in="SourceGraphic"></feMergeNode>
            </feMerge>
        </filter>
    </defs>
    <g id="Page-1" stroke="none" stroke-width="1" fill="none" fill-rule="evenodd">
        <g id="Dashboard" transform="translate(-930.000000, -587.000000)">
            <g id="Group-4" filter="url(#filter-1)" transform="translate(910.000000, 532.000000)">
                <g id="invites-sent" transform="translate(23.000000, 20.000000)">
                    <g id="Rating" transform="translate(0.000000, 33.000000)">
                        <g id="icon/invites-sent" transform="translate(0.000000, 5.000000)">
                            <rect id="Rectangle" fill="#7444BE" x="0" y="0" width="32" height="32" rx="6"></rect>
                            <g id="icon/invite" transform="translate(8.000000, 11.000000)" fill="#FFFFFF" fill-rule="nonzero">
                                <path d="M13.8181818,0.3 L2.18181818,0.3 C1.13890909,0.3 0.290909091,1.1745 0.290909091,2.25 L0.290909091,9.75 C0.290909091,10.8255 1.13963636,11.7 2.18181818,11.7 L13.8181818,11.7 C14.8610909,11.7 15.7090909,10.82475 15.7090909,9.75 L15.7090909,2.25 C15.7090909,1.1745 14.8610909,0.3 13.8181818,0.3 Z M13.8181818,2.14615385 C13.8820139,2.14615385 13.9313131,2.19699364 13.9313131,2.25 L13.9313131,9.75 C13.9313131,9.8026258 13.8816581,9.85384615 13.8181818,9.85384615 L2.18181818,9.85384615 C2.11835746,9.85384615 2.06868687,9.80263695 2.06868687,9.75 L2.06868687,2.25 C2.06868687,2.19699364 2.11798607,2.14615385 2.18181818,2.14615385 L13.8181818,2.14615385 Z M11.6886933,3.72034435 C12.0829401,3.42713245 12.6320486,3.52151046 12.9159972,3.92812344 C13.2015836,4.33860642 13.1105798,4.91018152 12.7138971,5.20259583 L8.95157901,7.72415943 C8.67683174,7.92901539 8.34921668,8.03653846 8.01381818,8.03653846 C7.6817082,8.03653846 7.35576085,7.93047571 7.08113084,7.72876307 L3.28778759,5.20458741 C2.89003311,4.91290079 2.7977465,4.34187739 3.08162961,3.93019383 C3.36479611,3.5216748 3.91284496,3.42693442 4.30811104,3.71830601 L8.01305476,6.17718715 L11.6886933,3.72034435 Z M13.0848347,3.5462921 C13.0876243,3.55028801 13.0909423,3.55085829 13.0943957,3.54828871 L8.44211083,6.99319042 C8.18640904,7.1834257 7.84349441,7.1834257 7.5873233,6.99527091 L2.90491913,3.54810711 C2.90793278,3.55032863 2.91191009,3.54964107 2.91480628,3.5454604 C2.91848416,3.54012675 2.91708649,3.53147865 2.91232371,3.52798693 L7.59482485,6.97543694 C7.71787994,7.06581935 7.8642918,7.11346154 8.01381818,7.11346154 C8.16480916,7.11346154 8.31084302,7.06553331 8.43430487,6.97348109 L13.0874646,3.52739289 C13.082242,3.53124271 13.080775,3.5404569 13.0848347,3.5462921 Z" id="Path"></path>
                            </g>
                        </g>
                    </g>
                </g>
            </g>
        </g>
    </g>
</svg>