<?xml version="1.0" encoding="UTF-8"?>
<svg width="220px" height="197px" viewBox="0 0 220 197" version="1.1" xmlns="http://www.w3.org/2000/svg" xmlns:xlink="http://www.w3.org/1999/xlink">
    <!-- Generator: Sketch 61.2 (89653) - https://sketch.com -->
    <title>Group 2</title>
    <desc>Created with Sketch.</desc>
    <g id="Page-1" stroke="none" stroke-width="1" fill="none" fill-rule="evenodd">
        <g id="279-line-chart-2" transform="translate(-257.000000, -255.000000)" fill-rule="nonzero">
            <g id="Group-2" transform="translate(257.000000, 254.250000)">
                <path d="M137.8,111.7 L78.4,111.7 L12.7,111.7 L12.7,176.4 C12.7,188.1 22.2,197.6 33.9,197.6 L185.7,197.6 C197.4,197.6 206.9,188.1 206.9,176.4 L206.9,111.7 L137.8,111.7 L137.8,111.7 Z" id="Path" fill="#00ACEA"></path>
                <path d="M198.5,40.8 C198.4,40.8 198.2,40.8 198.1,40.8 L157.1,40.8 L157.1,31.8 C157.2,14.8 143.5,0.9 126.4,0.8 C126.3,0.8 126.2,0.8 126.2,0.8 L90,0.8 C73,0.8 59.1,14.5 59.1,31.6 C59.1,31.7 59.1,31.8 59.1,31.9 L59.1,40.9 L21.1,40.9 C9.6,40.7 0.2,49.9 0.1,61.3 C0.1,61.4 0.1,61.5 0.1,61.7 L0.1,113.8 L78.1,113.8 L138.1,113.8 L219.100808,113.8 L219.100808,61.6 C219.2,50.2 210,40.9 198.5,40.8 Z M137.1,31.8 L137.1,40.8 L79.1,40.8 L79.1,31.8 C79,25.8 83.7,20.9 89.7,20.8 C89.8,20.8 89.9,20.8 90,20.8 L126.2,20.8 C132.2,20.7 137.1,25.5 137.1,31.5 C137.1,31.6 137.1,31.7 137.1,31.8 Z" id="Shape" fill="#FEDB41"></path>
            </g>
        </g>
    </g>
</svg>